<?xml version="1.0" encoding="utf-8"?>
<!-- Generator: Adobe Illustrator 15.0.2, SVG Export Plug-In . SVG Version: 6.00 Build 0)  -->
<!DOCTYPE svg PUBLIC "-//W3C//DTD SVG 1.1//EN" "http://www.w3.org/Graphics/SVG/1.1/DTD/svg11.dtd">
<svg version="1.1" id="Layer_1" xmlns="http://www.w3.org/2000/svg" xmlns:xlink="http://www.w3.org/1999/xlink" x="0px" y="0px"
	 width="500px" height="300px" viewBox="0 0 500 300" enable-background="new 0 0 500 300" xml:space="preserve">
<g>
	<g>
		<g>
			<g>
				<g>
					<g>
						<g>
							<g>
								<g>
									<g>
										<g>
											<g>
												<g>
													<g>
														<g>
															<g>
																<g>
																	<g>
																		<g>
																			<g enable-background="new    ">
																				<path fill="#4E4F50" d="M217.608,220.793c0.801,0,1.532,0.07,2.192,0.211c0.66,0.141,1.226,0.372,1.697,0.691
																					c0.472,0.32,0.837,0.747,1.096,1.277c0.259,0.531,0.389,1.188,0.389,1.969c0,0.844-0.192,1.547-0.577,2.109
																					c-0.385,0.562-0.955,1.023-1.709,1.383c1.037,0.297,1.811,0.816,2.322,1.559
																					c0.51,0.742,0.766,1.637,0.766,2.684c0,0.844-0.165,1.574-0.495,2.191c-0.33,0.617-0.774,1.121-1.332,1.512
																					s-1.194,0.68-1.909,0.867c-0.715,0.188-1.45,0.281-2.204,0.281h-8.155v-16.734H217.608z M217.137,227.566
																					c0.66,0,1.202-0.156,1.626-0.469s0.636-0.82,0.636-1.523c0-0.391-0.07-0.711-0.212-0.961
																					s-0.33-0.445-0.565-0.586c-0.236-0.141-0.507-0.238-0.813-0.293c-0.306-0.055-0.625-0.082-0.954-0.082h-3.465
																					v3.914H217.137z M217.349,234.668c0.361,0,0.707-0.035,1.037-0.105s0.621-0.188,0.872-0.352
																					c0.251-0.164,0.452-0.387,0.601-0.668c0.149-0.281,0.224-0.641,0.224-1.078c0-0.859-0.244-1.473-0.73-1.84
																					c-0.487-0.367-1.131-0.551-1.933-0.551h-4.03v4.594H217.349z"/>
																				<path fill="#4E4F50" d="M230.5,234.621c0.502,0.484,1.226,0.727,2.168,0.727c0.675,0,1.257-0.168,1.744-0.504
																					s0.786-0.691,0.896-1.066h2.946c-0.471,1.453-1.194,2.492-2.168,3.117s-2.153,0.938-3.535,0.938
																					c-0.958,0-1.823-0.152-2.592-0.457c-0.77-0.305-1.422-0.738-1.956-1.301c-0.535-0.562-0.947-1.234-1.237-2.016
																					c-0.291-0.781-0.436-1.641-0.436-2.578c0-0.906,0.149-1.75,0.448-2.531c0.298-0.781,0.723-1.457,1.272-2.027
																					s1.206-1.02,1.968-1.348c0.762-0.328,1.606-0.492,2.533-0.492c1.037,0,1.94,0.199,2.71,0.598
																					c0.77,0.398,1.402,0.934,1.897,1.605c0.495,0.672,0.852,1.438,1.072,2.297c0.22,0.859,0.298,1.758,0.235,2.695
																					h-8.791C229.722,233.355,229.997,234.137,230.5,234.621z M234.283,228.246c-0.401-0.438-1.01-0.656-1.827-0.656
																					c-0.534,0-0.978,0.09-1.332,0.27s-0.636,0.402-0.849,0.668c-0.212,0.266-0.361,0.547-0.448,0.844
																					s-0.138,0.562-0.153,0.797h5.444C234.962,229.324,234.683,228.684,234.283,228.246z"/>
																				<path fill="#4E4F50" d="M241.294,229.137c0.047-0.781,0.243-1.43,0.589-1.945
																					c0.345-0.516,0.785-0.93,1.319-1.242s1.135-0.535,1.803-0.668c0.667-0.133,1.339-0.199,2.015-0.199
																					c0.613,0,1.233,0.043,1.862,0.129c0.628,0.086,1.202,0.254,1.721,0.504c0.518,0.25,0.942,0.598,1.272,1.043
																					s0.495,1.035,0.495,1.77v6.305c0,0.547,0.031,1.07,0.094,1.57s0.173,0.875,0.33,1.125h-3.394
																					c-0.063-0.188-0.114-0.379-0.153-0.574c-0.04-0.195-0.067-0.395-0.083-0.598
																					c-0.534,0.547-1.163,0.93-1.885,1.148c-0.723,0.219-1.461,0.328-2.215,0.328c-0.582,0-1.124-0.07-1.626-0.211
																					s-0.943-0.359-1.32-0.656s-0.671-0.672-0.884-1.125c-0.212-0.453-0.318-0.992-0.318-1.617
																					c0-0.688,0.121-1.254,0.365-1.699c0.243-0.445,0.558-0.801,0.942-1.066s0.825-0.465,1.32-0.598
																					c0.495-0.133,0.994-0.238,1.497-0.316s0.998-0.141,1.485-0.188c0.487-0.047,0.919-0.117,1.296-0.211
																					s0.675-0.23,0.896-0.41c0.22-0.18,0.322-0.441,0.306-0.785c0-0.359-0.059-0.645-0.177-0.855
																					c-0.118-0.211-0.275-0.375-0.471-0.492c-0.197-0.117-0.424-0.195-0.684-0.234s-0.538-0.059-0.836-0.059
																					c-0.66,0-1.178,0.141-1.556,0.422c-0.377,0.281-0.597,0.75-0.66,1.406H241.294z M249.024,231.598
																					c-0.141,0.125-0.318,0.223-0.53,0.293c-0.212,0.07-0.44,0.129-0.683,0.176
																					c-0.244,0.047-0.499,0.086-0.766,0.117c-0.268,0.031-0.534,0.07-0.801,0.117
																					c-0.251,0.047-0.499,0.109-0.742,0.188c-0.244,0.078-0.456,0.184-0.637,0.316s-0.326,0.301-0.436,0.504
																					s-0.165,0.461-0.165,0.773c0,0.297,0.055,0.547,0.165,0.75s0.259,0.363,0.448,0.48
																					c0.189,0.117,0.409,0.199,0.66,0.246c0.251,0.047,0.51,0.07,0.778,0.07c0.66,0,1.17-0.109,1.532-0.328
																					c0.361-0.219,0.628-0.48,0.801-0.785s0.279-0.613,0.318-0.926c0.039-0.312,0.059-0.562,0.059-0.75V231.598z"/>
																				<path fill="#4E4F50" d="M261.773,227.59c-0.533,0-0.981,0.121-1.343,0.363s-0.656,0.555-0.884,0.938
																					c-0.229,0.383-0.389,0.805-0.482,1.266c-0.095,0.461-0.143,0.918-0.143,1.371c0,0.438,0.048,0.883,0.143,1.336
																					c0.094,0.453,0.246,0.863,0.459,1.23c0.212,0.367,0.498,0.668,0.86,0.902c0.36,0.234,0.802,0.352,1.319,0.352
																					c0.802,0,1.418-0.223,1.851-0.668c0.432-0.445,0.702-1.043,0.813-1.793h3.229
																					c-0.221,1.609-0.849,2.836-1.886,3.68s-2.364,1.266-3.983,1.266c-0.911,0-1.748-0.152-2.51-0.457
																					s-1.41-0.73-1.944-1.277s-0.95-1.199-1.249-1.957s-0.447-1.59-0.447-2.496c0-0.938,0.137-1.809,0.412-2.613
																					c0.274-0.805,0.68-1.5,1.214-2.086s1.187-1.043,1.956-1.371s1.649-0.492,2.64-0.492
																					c0.722,0,1.417,0.094,2.085,0.281s1.266,0.473,1.792,0.855s0.954,0.859,1.284,1.43s0.519,1.246,0.566,2.027
																					h-3.277C264.028,228.285,263.203,227.59,261.773,227.59z"/>
																				<path fill="#4E4F50" d="M270.541,228.844c0.299-0.789,0.723-1.461,1.273-2.016
																					c0.549-0.555,1.209-0.984,1.979-1.289s1.635-0.457,2.593-0.457s1.827,0.152,2.604,0.457
																					s1.441,0.734,1.992,1.289c0.549,0.555,0.973,1.227,1.271,2.016s0.448,1.668,0.448,2.637
																					s-0.149,1.844-0.448,2.625s-0.723,1.449-1.271,2.004c-0.551,0.555-1.215,0.98-1.992,1.277
																					s-1.646,0.445-2.604,0.445s-1.823-0.148-2.593-0.445s-1.43-0.723-1.979-1.277
																					c-0.551-0.555-0.975-1.223-1.273-2.004s-0.447-1.656-0.447-2.625S270.242,229.633,270.541,228.844z
																					 M273.582,232.898c0.094,0.461,0.254,0.875,0.482,1.242c0.228,0.367,0.53,0.66,0.907,0.879
																					c0.378,0.219,0.849,0.328,1.414,0.328s1.041-0.109,1.427-0.328c0.385-0.219,0.69-0.512,0.918-0.879
																					c0.229-0.367,0.389-0.781,0.484-1.242c0.094-0.461,0.141-0.934,0.141-1.418s-0.047-0.961-0.141-1.43
																					c-0.096-0.469-0.256-0.883-0.484-1.242c-0.228-0.359-0.533-0.652-0.918-0.879
																					c-0.386-0.227-0.861-0.34-1.427-0.34s-1.036,0.113-1.414,0.34c-0.377,0.227-0.68,0.52-0.907,0.879
																					c-0.229,0.359-0.389,0.773-0.482,1.242c-0.095,0.469-0.143,0.945-0.143,1.43S273.487,232.438,273.582,232.898z"
																					/>
																				<path fill="#4E4F50" d="M289.041,225.41v1.688h0.071c0.425-0.703,0.974-1.215,1.649-1.535
																					s1.367-0.48,2.074-0.48c0.896,0,1.63,0.121,2.203,0.363c0.574,0.242,1.025,0.578,1.355,1.008
																					s0.562,0.953,0.695,1.57c0.134,0.617,0.201,1.301,0.201,2.051v7.453h-3.348v-6.844c0-1-0.156-1.746-0.471-2.238
																					s-0.872-0.738-1.674-0.738c-0.911,0-1.57,0.27-1.979,0.809s-0.612,1.426-0.612,2.66v6.352h-3.348V225.41
																					H289.041z"/>
																				<path fill="#4E4F50" d="M313.93,220.793l3.936,11.508h0.047l3.725-11.508h5.208v16.734h-3.464v-11.859h-0.048
																					l-4.124,11.859h-2.852l-4.125-11.742h-0.047v11.742h-3.465v-16.734H313.93z"/>
																				<path fill="#4E4F50" d="M330.592,229.137c0.047-0.781,0.243-1.43,0.59-1.945
																					c0.345-0.516,0.785-0.93,1.318-1.242c0.535-0.312,1.136-0.535,1.804-0.668c0.667-0.133,1.339-0.199,2.015-0.199
																					c0.613,0,1.233,0.043,1.862,0.129c0.628,0.086,1.202,0.254,1.72,0.504c0.52,0.25,0.943,0.598,1.273,1.043
																					s0.494,1.035,0.494,1.77v6.305c0,0.547,0.031,1.07,0.095,1.57s0.173,0.875,0.33,1.125h-3.394
																					c-0.062-0.188-0.114-0.379-0.153-0.574c-0.04-0.195-0.067-0.395-0.083-0.598
																					c-0.533,0.547-1.162,0.93-1.885,1.148s-1.461,0.328-2.215,0.328c-0.582,0-1.124-0.07-1.627-0.211
																					s-0.943-0.359-1.32-0.656s-0.671-0.672-0.883-1.125c-0.213-0.453-0.318-0.992-0.318-1.617
																					c0-0.688,0.121-1.254,0.365-1.699c0.243-0.445,0.558-0.801,0.942-1.066s0.825-0.465,1.319-0.598
																					c0.496-0.133,0.994-0.238,1.497-0.316s0.997-0.141,1.485-0.188c0.486-0.047,0.919-0.117,1.296-0.211
																					s0.675-0.23,0.896-0.41c0.22-0.18,0.322-0.441,0.307-0.785c0-0.359-0.059-0.645-0.178-0.855
																					c-0.117-0.211-0.274-0.375-0.471-0.492c-0.197-0.117-0.424-0.195-0.684-0.234s-0.538-0.059-0.836-0.059
																					c-0.66,0-1.179,0.141-1.557,0.422c-0.377,0.281-0.597,0.75-0.659,1.406H330.592z M338.322,231.598
																					c-0.142,0.125-0.318,0.223-0.531,0.293c-0.211,0.07-0.439,0.129-0.683,0.176
																					c-0.244,0.047-0.499,0.086-0.767,0.117s-0.533,0.07-0.801,0.117c-0.252,0.047-0.499,0.109-0.742,0.188
																					c-0.244,0.078-0.456,0.184-0.637,0.316s-0.326,0.301-0.436,0.504c-0.11,0.203-0.166,0.461-0.166,0.773
																					c0,0.297,0.056,0.547,0.166,0.75c0.109,0.203,0.259,0.363,0.447,0.48c0.189,0.117,0.408,0.199,0.66,0.246
																					c0.251,0.047,0.51,0.07,0.777,0.07c0.66,0,1.17-0.109,1.532-0.328c0.361-0.219,0.628-0.48,0.802-0.785
																					c0.172-0.305,0.278-0.613,0.318-0.926c0.039-0.312,0.059-0.562,0.059-0.75V231.598z"/>
																				<path fill="#4E4F50" d="M348.432,225.41v1.688h0.071c0.425-0.703,0.974-1.215,1.649-1.535
																					s1.367-0.48,2.074-0.48c0.896,0,1.63,0.121,2.203,0.363c0.574,0.242,1.025,0.578,1.355,1.008
																					s0.562,0.953,0.695,1.57c0.134,0.617,0.201,1.301,0.201,2.051v7.453h-3.348v-6.844c0-1-0.156-1.746-0.471-2.238
																					s-0.872-0.738-1.674-0.738c-0.911,0-1.57,0.27-1.979,0.809s-0.612,1.426-0.612,2.66v6.352h-3.348V225.41
																					H348.432z"/>
																				<path fill="#4E4F50" d="M360.074,229.137c0.047-0.781,0.244-1.43,0.59-1.945s0.785-0.93,1.319-1.242
																					s1.136-0.535,1.804-0.668c0.667-0.133,1.339-0.199,2.015-0.199c0.612,0,1.233,0.043,1.862,0.129
																					c0.627,0.086,1.201,0.254,1.72,0.504s0.942,0.598,1.272,1.043s0.495,1.035,0.495,1.77v6.305
																					c0,0.547,0.031,1.07,0.095,1.57c0.062,0.5,0.172,0.875,0.33,1.125h-3.395c-0.062-0.188-0.113-0.379-0.152-0.574
																					c-0.04-0.195-0.067-0.395-0.083-0.598c-0.534,0.547-1.163,0.93-1.886,1.148s-1.461,0.328-2.215,0.328
																					c-0.582,0-1.123-0.07-1.627-0.211c-0.502-0.141-0.942-0.359-1.319-0.656s-0.671-0.672-0.884-1.125
																					c-0.212-0.453-0.318-0.992-0.318-1.617c0-0.688,0.121-1.254,0.365-1.699s0.559-0.801,0.943-1.066
																					s0.824-0.465,1.319-0.598s0.993-0.238,1.497-0.316c0.502-0.078,0.997-0.141,1.484-0.188
																					c0.486-0.047,0.92-0.117,1.297-0.211s0.675-0.23,0.895-0.41c0.221-0.18,0.322-0.441,0.307-0.785
																					c0-0.359-0.059-0.645-0.177-0.855s-0.274-0.375-0.472-0.492c-0.196-0.117-0.424-0.195-0.684-0.234
																					c-0.259-0.039-0.537-0.059-0.836-0.059c-0.66,0-1.178,0.141-1.556,0.422c-0.377,0.281-0.597,0.75-0.659,1.406
																					H360.074z M367.805,231.598c-0.141,0.125-0.318,0.223-0.53,0.293s-0.44,0.129-0.683,0.176
																					c-0.244,0.047-0.5,0.086-0.767,0.117c-0.268,0.031-0.534,0.07-0.802,0.117
																					c-0.251,0.047-0.498,0.109-0.742,0.188s-0.455,0.184-0.637,0.316c-0.18,0.133-0.326,0.301-0.436,0.504
																					s-0.165,0.461-0.165,0.773c0,0.297,0.056,0.547,0.165,0.75s0.26,0.363,0.447,0.48
																					c0.189,0.117,0.409,0.199,0.66,0.246c0.252,0.047,0.511,0.07,0.778,0.07c0.659,0,1.17-0.109,1.532-0.328
																					c0.361-0.219,0.628-0.48,0.801-0.785s0.279-0.613,0.318-0.926s0.059-0.562,0.059-0.75V231.598z"/>
																				<path fill="#4E4F50" d="M386.246,238.418c-0.133,0.625-0.42,1.207-0.859,1.746
																					c-0.44,0.539-1.076,0.996-1.909,1.371s-1.948,0.562-3.347,0.562c-0.598,0-1.206-0.074-1.826-0.223
																					c-0.621-0.148-1.188-0.379-1.697-0.691c-0.511-0.312-0.936-0.715-1.273-1.207s-0.529-1.082-0.576-1.77h3.322
																					c0.157,0.625,0.463,1.059,0.92,1.301c0.455,0.242,0.98,0.363,1.578,0.363c0.943,0,1.631-0.281,2.062-0.844
																					s0.641-1.273,0.625-2.133v-1.594h-0.047c-0.362,0.641-0.877,1.113-1.545,1.418s-1.371,0.457-2.109,0.457
																					c-0.91,0-1.696-0.16-2.356-0.48c-0.659-0.32-1.202-0.758-1.626-1.312s-0.734-1.203-0.932-1.945
																					c-0.195-0.742-0.294-1.527-0.294-2.355c0-0.781,0.114-1.535,0.342-2.262s0.562-1.367,1.001-1.922
																					c0.44-0.555,0.986-0.996,1.639-1.324s1.402-0.492,2.25-0.492c0.803,0,1.505,0.148,2.109,0.445
																					c0.605,0.297,1.111,0.797,1.521,1.5h0.047v-1.617h3.182v11.344C386.447,237.238,386.38,237.793,386.246,238.418
																					z M381.662,234.387c0.361-0.188,0.66-0.438,0.896-0.75c0.235-0.312,0.412-0.668,0.529-1.066
																					c0.118-0.398,0.178-0.816,0.178-1.254c0-0.5-0.047-0.973-0.142-1.418s-0.252-0.84-0.472-1.184
																					c-0.221-0.344-0.511-0.617-0.872-0.82s-0.817-0.305-1.366-0.305c-0.473,0-0.877,0.094-1.215,0.281
																					s-0.62,0.441-0.848,0.762c-0.229,0.32-0.393,0.688-0.495,1.102s-0.153,0.848-0.153,1.301
																					c0,0.438,0.043,0.871,0.13,1.301c0.086,0.43,0.235,0.816,0.448,1.16c0.211,0.344,0.49,0.625,0.836,0.844
																					s0.777,0.328,1.297,0.328C380.885,234.668,381.301,234.574,381.662,234.387z"/>
																				<path fill="#4E4F50" d="M393.705,234.621c0.503,0.484,1.227,0.727,2.169,0.727c0.675,0,1.257-0.168,1.743-0.504
																					c0.487-0.336,0.786-0.691,0.896-1.066h2.945c-0.471,1.453-1.193,2.492-2.168,3.117s-2.152,0.938-3.535,0.938
																					c-0.959,0-1.822-0.152-2.592-0.457c-0.771-0.305-1.423-0.738-1.957-1.301s-0.946-1.234-1.236-2.016
																					c-0.291-0.781-0.437-1.641-0.437-2.578c0-0.906,0.149-1.75,0.448-2.531c0.298-0.781,0.723-1.457,1.271-2.027
																					c0.551-0.57,1.206-1.02,1.969-1.348c0.762-0.328,1.605-0.492,2.533-0.492c1.037,0,1.94,0.199,2.711,0.598
																					c0.77,0.398,1.402,0.934,1.896,1.605c0.495,0.672,0.853,1.438,1.072,2.297c0.221,0.859,0.299,1.758,0.236,2.695
																					h-8.791C392.928,233.355,393.203,234.137,393.705,234.621z M397.488,228.246c-0.4-0.438-1.01-0.656-1.826-0.656
																					c-0.535,0-0.979,0.09-1.332,0.27s-0.637,0.402-0.849,0.668s-0.361,0.547-0.448,0.844
																					c-0.086,0.297-0.137,0.562-0.152,0.797h5.443C398.168,229.324,397.889,228.684,397.488,228.246z"/>
																				<path fill="#4E4F50" d="M407.893,225.41v1.641h0.048c0.439-0.625,0.97-1.109,1.591-1.453
																					s1.332-0.516,2.133-0.516c0.77,0,1.473,0.148,2.109,0.445s1.119,0.82,1.449,1.57
																					c0.361-0.531,0.853-1,1.473-1.406c0.621-0.406,1.355-0.609,2.204-0.609c0.644,0,1.241,0.078,1.791,0.234
																					s1.021,0.406,1.414,0.75s0.699,0.793,0.919,1.348c0.221,0.555,0.33,1.223,0.33,2.004v8.109h-3.346v-6.867
																					c0-0.406-0.017-0.789-0.048-1.148c-0.032-0.359-0.118-0.672-0.259-0.938c-0.142-0.266-0.35-0.477-0.625-0.633
																					s-0.648-0.234-1.119-0.234c-0.472,0-0.854,0.09-1.144,0.27s-0.519,0.414-0.683,0.703
																					c-0.166,0.289-0.275,0.617-0.33,0.984c-0.056,0.367-0.083,0.738-0.083,1.113v6.75h-3.347v-6.797
																					c0-0.359-0.008-0.715-0.023-1.066s-0.082-0.676-0.2-0.973s-0.315-0.535-0.589-0.715
																					c-0.275-0.18-0.68-0.27-1.215-0.27c-0.156,0-0.365,0.035-0.624,0.105s-0.511,0.203-0.755,0.398
																					c-0.243,0.195-0.451,0.477-0.624,0.844s-0.259,0.848-0.259,1.441v7.031h-3.348V225.41H407.893z"/>
																				<path fill="#4E4F50" d="M430.566,234.621c0.502,0.484,1.225,0.727,2.168,0.727c0.675,0,1.257-0.168,1.744-0.504
																					c0.486-0.336,0.785-0.691,0.896-1.066h2.945c-0.471,1.453-1.193,2.492-2.168,3.117s-2.152,0.938-3.535,0.938
																					c-0.958,0-1.822-0.152-2.593-0.457c-0.77-0.305-1.422-0.738-1.956-1.301s-0.946-1.234-1.237-2.016
																					s-0.436-1.641-0.436-2.578c0-0.906,0.149-1.75,0.447-2.531c0.299-0.781,0.723-1.457,1.273-2.027
																					c0.55-0.57,1.205-1.02,1.968-1.348c0.762-0.328,1.606-0.492,2.533-0.492c1.037,0,1.94,0.199,2.71,0.598
																					c0.771,0.398,1.402,0.934,1.897,1.605s0.853,1.438,1.072,2.297s0.299,1.758,0.236,2.695h-8.791
																					C429.788,233.355,430.062,234.137,430.566,234.621z M434.349,228.246c-0.4-0.438-1.01-0.656-1.826-0.656
																					c-0.535,0-0.979,0.09-1.332,0.27s-0.637,0.402-0.849,0.668s-0.361,0.547-0.447,0.844
																					c-0.087,0.297-0.138,0.562-0.153,0.797h5.444C435.028,229.324,434.749,228.684,434.349,228.246z"/>
																				<path fill="#4E4F50" d="M444.683,225.41v1.688h0.071c0.424-0.703,0.974-1.215,1.649-1.535
																					s1.367-0.48,2.074-0.48c0.896,0,1.63,0.121,2.203,0.363s1.025,0.578,1.355,1.008s0.562,0.953,0.695,1.57
																					c0.133,0.617,0.2,1.301,0.2,2.051v7.453h-3.347v-6.844c0-1-0.157-1.746-0.472-2.238s-0.872-0.738-1.673-0.738
																					c-0.911,0-1.571,0.27-1.979,0.809c-0.409,0.539-0.613,1.426-0.613,2.66v6.352h-3.347V225.41H444.683z"/>
																				<path fill="#4E4F50" d="M463.159,225.41v2.227h-2.451v6c0,0.562,0.095,0.938,0.283,1.125
																					s0.565,0.281,1.131,0.281c0.188,0,0.369-0.008,0.542-0.023s0.338-0.039,0.495-0.07v2.578
																					c-0.282,0.047-0.597,0.078-0.942,0.094s-0.684,0.023-1.014,0.023c-0.519,0-1.01-0.035-1.473-0.105
																					c-0.464-0.07-0.872-0.207-1.226-0.41s-0.633-0.492-0.837-0.867s-0.307-0.867-0.307-1.477v-7.148h-2.026v-2.227
																					h2.026v-3.633h3.347v3.633H463.159z"/>
																			</g>
																		</g>
																	</g>
																</g>
															</g>
														</g>
													</g>
												</g>
											</g>
										</g>
									</g>
								</g>
							</g>
						</g>
					</g>
				</g>
			</g>
		</g>
	</g>
	<g enable-background="new    ">
		<path fill="#7BB344" d="M235.834,139.293c0.503,0.296,0.873,0.681,1.11,1.154c0.236,0.474,0.192,1.036-0.133,1.687l-7.501,10.653
			c-0.326,0.503-0.674,0.792-1.043,0.865c-0.37,0.074-0.821-0.051-1.354-0.377c-1.451-1.095-3.048-1.938-4.794-2.53
			s-3.595-0.888-5.548-0.888c-2.427,0-4.661,0.459-6.703,1.376c-2.042,0.918-3.803,2.175-5.282,3.773
			c-1.48,1.598-2.634,3.462-3.462,5.593c-0.829,2.131-1.243,4.409-1.243,6.836s0.414,4.698,1.243,6.813
			c0.828,2.116,1.982,3.966,3.462,5.549c1.479,1.583,3.24,2.834,5.282,3.75c2.042,0.918,4.276,1.377,6.703,1.377
			c1.953,0,3.817-0.304,5.593-0.91c1.776-0.606,3.388-1.457,4.838-2.553c0.533-0.325,0.977-0.458,1.332-0.399
			c0.355,0.06,0.71,0.326,1.065,0.799l7.591,10.92c0.325,0.651,0.37,1.198,0.133,1.643c-0.237,0.443-0.607,0.814-1.109,1.109
			c-2.782,1.864-5.778,3.307-8.989,4.328c-3.211,1.021-6.592,1.531-10.143,1.531c-3.137,0-6.147-0.399-9.033-1.198
			c-2.885-0.799-5.586-1.938-8.101-3.418c-2.516-1.479-4.802-3.247-6.858-5.305c-2.057-2.057-3.825-4.335-5.304-6.836
			c-1.48-2.5-2.619-5.193-3.418-8.079c-0.799-2.885-1.198-5.896-1.198-9.032s0.399-6.148,1.198-9.033
			c0.799-2.886,1.938-5.594,3.418-8.123c1.479-2.53,3.247-4.831,5.304-6.903c2.057-2.07,4.343-3.839,6.858-5.304
			c2.515-1.465,5.215-2.604,8.101-3.418c2.886-0.813,5.896-1.221,9.033-1.221c3.551,0,6.902,0.496,10.054,1.486
			C230.085,136.001,233.052,137.429,235.834,139.293z"/>
		<path fill="#7BB344" d="M300.286,197.131c0,0.504-0.089,0.984-0.267,1.443s-0.474,0.821-0.888,1.087
			c-0.325,0.326-0.71,0.533-1.153,0.622c-0.444,0.089-0.83,0.133-1.154,0.133h-8.745c-0.622,0-1.125-0.081-1.509-0.244
			c-0.385-0.162-0.695-0.392-0.933-0.688c-0.237-0.295-0.437-0.658-0.599-1.087c-0.164-0.429-0.334-0.895-0.512-1.398l-1.287-3.329
			c-0.799,0.799-1.672,1.65-2.618,2.553c-0.948,0.902-1.991,1.738-3.13,2.508s-2.375,1.413-3.706,1.931
			c-1.332,0.518-2.753,0.776-4.261,0.776c-2.693,0-5.275-0.34-7.746-1.021c-2.472-0.681-4.779-1.649-6.926-2.907
			c-2.145-1.258-4.091-2.767-5.836-4.528c-1.747-1.76-3.248-3.721-4.505-5.881c-1.258-2.16-2.227-4.49-2.908-6.991
			c-0.681-2.501-1.021-5.112-1.021-7.835c0-4.112,0.755-7.938,2.264-11.475c1.509-3.535,3.565-6.613,6.17-9.232
			c2.604-2.619,5.667-4.676,9.188-6.17s7.295-2.242,11.32-2.242c1.834,0,3.521,0.274,5.06,0.821
			c1.538,0.548,2.937,1.266,4.194,2.153s2.397,1.894,3.418,3.019c1.021,1.125,1.932,2.264,2.73,3.418l1.73-5.371
			c0.296-0.739,0.54-1.339,0.732-1.798s0.4-0.799,0.622-1.021c0.222-0.222,0.495-0.369,0.821-0.443
			c0.325-0.074,0.783-0.111,1.376-0.111h6.614c0.324,0,0.71,0.045,1.154,0.133c0.443,0.089,0.828,0.297,1.153,0.622
			c0.414,0.326,0.71,0.695,0.888,1.109c0.178,0.415,0.267,0.888,0.267,1.421V197.131z M256.562,172.273
			c0,1.953,0.304,3.781,0.91,5.482c0.606,1.702,1.473,3.174,2.598,4.416c1.124,1.243,2.478,2.228,4.061,2.952
			c1.584,0.726,3.336,1.088,5.261,1.088c1.981,0,3.824-0.362,5.526-1.088c1.701-0.725,3.181-1.709,4.439-2.952
			c1.257-1.242,2.241-2.714,2.951-4.416c0.711-1.701,1.065-3.529,1.065-5.482c0-1.894-0.354-3.698-1.065-5.415
			c-0.71-1.716-1.694-3.226-2.951-4.528c-1.259-1.302-2.738-2.33-4.439-3.085c-1.702-0.754-3.545-1.132-5.526-1.132
			c-1.925,0-3.677,0.378-5.261,1.132c-1.583,0.755-2.937,1.783-4.061,3.085c-1.125,1.303-1.991,2.812-2.598,4.528
			C256.866,168.575,256.562,170.38,256.562,172.273z"/>
		<path fill="#7BB344" d="M306.944,147.327c0-0.503,0.11-0.983,0.333-1.442c0.222-0.459,0.495-0.821,0.821-1.088
			c0.769-0.503,1.567-0.755,2.397-0.755h6.702c0.562,0,1.005,0.104,1.331,0.312s0.6,0.474,0.822,0.799
			c0.221,0.326,0.414,0.695,0.576,1.109c0.162,0.415,0.362,0.829,0.6,1.243c0.059,0.118,0.178,0.407,0.355,0.865
			c0.178,0.459,0.369,0.962,0.576,1.51s0.406,1.064,0.6,1.553c0.192,0.488,0.318,0.807,0.377,0.955
			c0.889-0.977,1.738-2.005,2.553-3.085c0.813-1.08,1.68-2.079,2.597-2.996s1.938-1.672,3.063-2.265
			c1.123-0.591,2.455-0.888,3.994-0.888c1.598,0,3.025,0.119,4.283,0.355c1.258,0.237,2.449,0.585,3.574,1.043
			c1.124,0.459,2.241,1.043,3.352,1.754c1.109,0.71,2.314,1.539,3.617,2.485c2.042,1.095,2.426,2.723,1.154,4.883l-4.039,6.88
			c-0.593,0.888-1.318,1.436-2.176,1.643c-0.858,0.207-1.791,0.074-2.797-0.399c-1.271-1.243-2.566-2.167-3.883-2.774
			c-1.318-0.606-2.819-0.91-4.506-0.91c-1.154,0-2.168,0.163-3.041,0.488c-0.873,0.326-1.664,0.785-2.375,1.376
			c-0.71,0.593-1.375,1.303-1.997,2.131c-0.622,0.829-1.243,1.747-1.864,2.752v32.138c0,1.125-0.273,1.976-0.821,2.553
			s-1.458,0.865-2.729,0.865h-9.988c-2.308,0-3.462-1.139-3.462-3.418V147.327z"/>
		<path fill="#7BB344" d="M354.039,147.327c0-0.503,0.111-0.983,0.334-1.442c0.221-0.459,0.494-0.821,0.82-1.088
			c0.77-0.503,1.568-0.755,2.397-0.755h6.702c0.562,0,1.006,0.104,1.332,0.312c0.325,0.207,0.6,0.474,0.821,0.799
			c0.222,0.326,0.414,0.695,0.577,1.109c0.162,0.415,0.361,0.829,0.6,1.243c0.059,0.118,0.177,0.407,0.354,0.865
			c0.178,0.459,0.37,0.962,0.577,1.51s0.406,1.064,0.6,1.553c0.191,0.488,0.317,0.807,0.377,0.955
			c0.888-0.977,1.738-2.005,2.553-3.085c0.812-1.08,1.679-2.079,2.596-2.996c0.918-0.917,1.938-1.672,3.063-2.265
			c1.124-0.591,2.456-0.888,3.995-0.888c1.598,0,3.025,0.119,4.283,0.355c1.258,0.237,2.448,0.585,3.573,1.043
			c1.124,0.459,2.241,1.043,3.352,1.754c1.11,0.71,2.315,1.539,3.618,2.485c2.041,1.095,2.426,2.723,1.153,4.883l-4.039,6.88
			c-0.593,0.888-1.317,1.436-2.175,1.643c-0.859,0.207-1.791,0.074-2.797-0.399c-1.272-1.243-2.567-2.167-3.884-2.774
			c-1.317-0.606-2.819-0.91-4.505-0.91c-1.154,0-2.169,0.163-3.041,0.488c-0.873,0.326-1.665,0.785-2.375,1.376
			c-0.711,0.593-1.376,1.303-1.998,2.131c-0.621,0.829-1.242,1.747-1.863,2.752v32.138c0,1.125-0.274,1.976-0.822,2.553
			c-0.547,0.577-1.457,0.865-2.729,0.865h-9.987c-2.309,0-3.463-1.139-3.463-3.418V147.327z"/>
		<path fill="#7BB344" d="M395.099,172.273c0-2.722,0.347-5.341,1.043-7.856c0.694-2.515,1.671-4.846,2.93-6.991
			c1.257-2.146,2.767-4.099,4.527-5.859s3.722-3.263,5.882-4.506c2.16-1.242,4.49-2.204,6.991-2.885
			c2.5-0.681,5.111-1.021,7.835-1.021c4.023,0,7.805,0.748,11.34,2.242c3.537,1.494,6.615,3.551,9.232,6.17
			c2.619,2.619,4.691,5.697,6.215,9.232c1.523,3.537,2.287,7.362,2.287,11.475c0,2.723-0.35,5.334-1.043,7.835
			c-0.697,2.501-1.674,4.831-2.93,6.991c-1.26,2.16-2.768,4.121-4.529,5.881c-1.76,1.762-3.721,3.271-5.881,4.528
			s-4.477,2.227-6.947,2.907s-5.053,1.021-7.744,1.021c-2.724,0-5.335-0.34-7.835-1.021c-2.501-0.681-4.831-1.649-6.991-2.907
			s-4.121-2.767-5.882-4.528c-1.761-1.76-3.271-3.721-4.527-5.881c-1.259-2.16-2.235-4.49-2.93-6.991
			C395.445,177.607,395.099,174.996,395.099,172.273z M411.301,172.273c0,1.953,0.303,3.781,0.91,5.482
			c0.605,1.702,1.465,3.174,2.574,4.416c1.109,1.243,2.455,2.228,4.039,2.952c1.582,0.726,3.365,1.088,5.349,1.088
			c1.923,0,3.662-0.362,5.216-1.088c1.553-0.725,2.869-1.709,3.949-2.952c1.08-1.242,1.91-2.714,2.486-4.416
			c0.578-1.701,0.865-3.529,0.865-5.482c0-1.894-0.287-3.698-0.865-5.415c-0.576-1.716-1.406-3.226-2.486-4.528
			c-1.08-1.302-2.396-2.33-3.949-3.085c-1.554-0.754-3.293-1.132-5.216-1.132c-1.983,0-3.767,0.378-5.349,1.132
			c-1.584,0.755-2.93,1.783-4.039,3.085c-1.109,1.303-1.969,2.812-2.574,4.528C411.604,168.575,411.301,170.38,411.301,172.273z"/>
		<path fill="#7BB344" d="M461.637,135.253c0-0.916,0.303-1.604,0.91-2.063c0.605-0.459,1.471-0.895,2.596-1.31l10.076-3.507
			c0.148-0.029,0.289-0.044,0.422-0.044c0.135,0,0.26,0,0.379,0c1.094,0,1.826,0.318,2.197,0.954
			c0.369,0.637,0.555,1.473,0.555,2.508l-0.045,13.982h7.412c0.947,0,1.717,0.281,2.309,0.844s0.889,1.405,0.889,2.53v8.566
			c0,1.243-0.297,2.153-0.889,2.73s-1.361,0.865-2.309,0.865h-7.412l0.045,35.688c0,1.125-0.326,1.976-0.977,2.553
			c-0.652,0.577-1.555,0.865-2.709,0.865h-10.031c-2.279,0-3.418-1.139-3.418-3.418l-0.045-35.688h-3.24
			c-2.279,0-3.418-1.198-3.418-3.596v-8.566c0-2.249,1.139-3.374,3.418-3.374h3.24L461.637,135.253z"/>
	</g>
</g>
<g>
	<g>
		
			<linearGradient id="SVGID_1_" gradientUnits="userSpaceOnUse" x1="524.4277" y1="335.457" x2="524.4277" y2="151.5483" gradientTransform="matrix(0.7071 0.7071 0.7071 -0.7071 -466.301 -30.2987)">
			<stop  offset="0" style="stop-color:#F89A1C"/>
			<stop  offset="1" style="stop-color:#DE6A26"/>
		</linearGradient>
		<path fill="url(#SVGID_1_)" d="M142.977,102.07c-26.469-26.469-69.383-26.469-95.852,0c-26.47,26.47-49.481,117.8-35.714,131.567
			c13.767,13.768,105.097-9.246,131.566-35.713C169.444,171.452,169.444,128.54,142.977,102.07z M70.175,174.861
			c-13.708-13.709-13.708-36.024,0.005-49.735c13.712-13.713,36.025-13.713,49.736,0c13.717,13.711,13.716,36.026,0.002,49.74
			C106.206,188.579,83.893,188.579,70.175,174.861z"/>
	</g>
	<g>
		
			<linearGradient id="SVGID_2_" gradientUnits="userSpaceOnUse" x1="471.6963" y1="398.999" x2="519.355" y2="343.7683" gradientTransform="matrix(0.7071 0.7071 0.7071 -0.7071 -466.301 -30.2987)">
			<stop  offset="0" style="stop-color:#98C93E"/>
			<stop  offset="1" style="stop-color:#509944"/>
		</linearGradient>
		<path fill="url(#SVGID_2_)" d="M161.482,34.79c-0.974-7.359-6.301-13.306-13.721-13.148c-7.419,0.158-13.324,5.436-13.147,13.721
			c0.144,6.714,6.573,25.098,6.182,55.534c-0.066,5.133,3.336,2.2,4.374-0.093C145.521,90.031,164.088,54.483,161.482,34.79z"/>
		
			<linearGradient id="SVGID_3_" gradientUnits="userSpaceOnUse" x1="579.1943" y1="404.0703" x2="536.1371" y2="343.4932" gradientTransform="matrix(0.7071 0.7071 0.7071 -0.7071 -466.301 -30.2987)">
			<stop  offset="0" style="stop-color:#98C93E"/>
			<stop  offset="1" style="stop-color:#509944"/>
		</linearGradient>
		<path fill="url(#SVGID_3_)" d="M214.963,82.816c7.396,0.61,13.602,5.637,13.809,13.058c0.208,7.417-4.772,13.575-13.055,13.806
			c-6.714,0.189-27.677-3.893-58.059-1.999c-5.122,0.321-4.094-1.962-0.122-4.373C158.261,102.868,195.163,81.186,214.963,82.816z"
			/>
		
			<linearGradient id="SVGID_4_" gradientUnits="userSpaceOnUse" x1="526.7607" y1="438.1191" x2="526.7607" y2="345.4443" gradientTransform="matrix(0.7071 0.7071 0.7071 -0.7071 -466.301 -30.2987)">
			<stop  offset="0" style="stop-color:#98C93E"/>
			<stop  offset="1" style="stop-color:#509944"/>
		</linearGradient>
		<path fill="url(#SVGID_4_)" d="M189.909,32.337c5.935-6.773,18.83-7.186,26.013,0c7.182,7.182,8.511,19.618,0,26.011
			c-7.684,5.771-63.35,46.377-67.786,41.941C143.047,95.2,186.743,35.948,189.909,32.337z"/>
	</g>
</g>
</svg>
