<?xml version="1.0" encoding="utf-8"?>
<!-- Generator: Adobe Illustrator 15.0.2, SVG Export Plug-In . SVG Version: 6.00 Build 0)  -->
<!DOCTYPE svg PUBLIC "-//W3C//DTD SVG 1.1//EN" "http://www.w3.org/Graphics/SVG/1.1/DTD/svg11.dtd">
<svg version="1.1" id="Layer_1" xmlns="http://www.w3.org/2000/svg" xmlns:xlink="http://www.w3.org/1999/xlink" x="0px" y="0px"
	 width="250px" height="75px" viewBox="0 0 250 75" enable-background="new 0 0 250 75" xml:space="preserve">
<g>
	<g>
		<path fill="#7BB344" d="M107.524,39.749c0.268,0.157,0.464,0.362,0.591,0.614c0.126,0.252,0.103,0.552-0.071,0.898l-3.996,5.675
			c-0.173,0.269-0.359,0.422-0.556,0.461c-0.197,0.04-0.438-0.027-0.721-0.201c-0.772-0.583-1.624-1.032-2.554-1.348
			c-0.93-0.314-1.915-0.473-2.956-0.473c-1.292,0-2.482,0.245-3.57,0.733c-1.087,0.488-2.025,1.158-2.813,2.01
			c-0.789,0.851-1.403,1.844-1.845,2.979c-0.441,1.135-0.662,2.349-0.662,3.641c0,1.293,0.22,2.503,0.662,3.63
			s1.056,2.112,1.845,2.955c0.788,0.844,1.726,1.51,2.813,1.998c1.088,0.489,2.278,0.733,3.57,0.733
			c1.041,0,2.034-0.161,2.979-0.484s1.805-0.776,2.577-1.36c0.284-0.173,0.52-0.244,0.709-0.213
			c0.189,0.032,0.378,0.174,0.567,0.426l4.043,5.816c0.173,0.348,0.197,0.639,0.071,0.875c-0.126,0.236-0.323,0.434-0.591,0.592
			c-1.482,0.993-3.078,1.761-4.788,2.305s-3.511,0.816-5.403,0.816c-1.671,0-3.275-0.213-4.812-0.639
			c-1.537-0.426-2.976-1.032-4.315-1.82s-2.558-1.73-3.653-2.826c-1.096-1.096-2.038-2.309-2.826-3.642
			c-0.789-1.331-1.395-2.766-1.821-4.303c-0.425-1.537-0.638-3.141-0.638-4.812s0.213-3.275,0.638-4.812
			c0.426-1.536,1.032-2.979,1.821-4.326c0.788-1.349,1.729-2.573,2.826-3.677c1.095-1.104,2.313-2.046,3.653-2.826
			s2.778-1.387,4.315-1.82c1.537-0.434,3.141-0.65,4.812-0.65c1.892,0,3.677,0.264,5.355,0.792
			C104.462,37.995,106.042,38.756,107.524,39.749z"/>
		<path fill="#7BB344" d="M141.619,70.558c0,0.269-0.047,0.524-0.141,0.769c-0.096,0.245-0.254,0.438-0.473,0.579
			c-0.174,0.174-0.379,0.284-0.615,0.331c-0.236,0.048-0.441,0.071-0.615,0.071h-4.658c-0.33,0-0.6-0.043-0.805-0.13
			s-0.369-0.209-0.496-0.366c-0.125-0.158-0.232-0.351-0.318-0.58c-0.088-0.228-0.178-0.477-0.271-0.744l-0.686-1.773
			c-0.426,0.426-0.892,0.879-1.396,1.359c-0.504,0.481-1.06,0.926-1.666,1.336c-0.607,0.41-1.266,0.753-1.975,1.028
			s-1.466,0.414-2.27,0.414c-1.435,0-2.81-0.182-4.126-0.544c-1.316-0.362-2.546-0.879-3.689-1.549s-2.179-1.474-3.109-2.412
			c-0.931-0.938-1.73-1.981-2.4-3.133c-0.67-1.15-1.186-2.392-1.548-3.724c-0.363-1.332-0.544-2.723-0.544-4.174
			c0-2.19,0.402-4.228,1.206-6.112c0.804-1.883,1.899-3.522,3.287-4.918c1.387-1.395,3.018-2.49,4.894-3.286s3.886-1.194,6.03-1.194
			c0.977,0,1.875,0.146,2.696,0.438c0.819,0.292,1.564,0.674,2.234,1.146c0.67,0.474,1.276,1.009,1.82,1.608
			c0.543,0.599,1.029,1.206,1.455,1.82l0.922-2.861c0.156-0.394,0.287-0.713,0.389-0.957c0.104-0.244,0.213-0.426,0.332-0.544
			c0.117-0.118,0.264-0.197,0.438-0.236s0.418-0.06,0.732-0.06h3.523c0.174,0,0.379,0.023,0.615,0.071
			c0.236,0.047,0.441,0.157,0.615,0.331c0.219,0.174,0.377,0.37,0.473,0.591c0.094,0.221,0.141,0.473,0.141,0.757V70.558z
			 M118.33,57.316c0,1.041,0.161,2.015,0.484,2.921s0.784,1.69,1.383,2.353s1.32,1.186,2.164,1.572s1.777,0.579,2.802,0.579
			c1.056,0,2.038-0.192,2.944-0.579s1.694-0.91,2.365-1.572c0.669-0.662,1.193-1.446,1.571-2.353
			c0.379-0.906,0.568-1.88,0.568-2.921c0-1.008-0.189-1.97-0.568-2.885c-0.378-0.914-0.902-1.718-1.571-2.411
			c-0.671-0.693-1.459-1.241-2.365-1.644s-1.888-0.603-2.944-0.603c-1.024,0-1.958,0.2-2.802,0.603s-1.564,0.95-2.164,1.644
			s-1.06,1.497-1.383,2.411C118.491,55.347,118.33,56.309,118.33,57.316z"/>
		<path fill="#7BB344" d="M144.93,44.028c0-0.268,0.06-0.523,0.178-0.769c0.118-0.244,0.264-0.438,0.438-0.579
			c0.41-0.268,0.835-0.402,1.276-0.402h3.571c0.299,0,0.535,0.056,0.709,0.166c0.173,0.11,0.319,0.252,0.438,0.426
			c0.118,0.173,0.221,0.37,0.308,0.591c0.086,0.221,0.192,0.441,0.318,0.662c0.032,0.063,0.095,0.217,0.189,0.461
			s0.197,0.513,0.308,0.804c0.11,0.292,0.217,0.567,0.319,0.828c0.103,0.26,0.169,0.43,0.201,0.508
			c0.473-0.52,0.926-1.067,1.359-1.644c0.434-0.575,0.895-1.106,1.383-1.596c0.488-0.488,1.032-0.891,1.632-1.206
			c0.599-0.314,1.309-0.473,2.128-0.473c0.852,0,1.611,0.063,2.282,0.189c0.669,0.126,1.304,0.312,1.903,0.556
			c0.599,0.244,1.193,0.556,1.785,0.934c0.591,0.379,1.232,0.82,1.927,1.324c1.088,0.583,1.292,1.45,0.614,2.601l-2.151,3.665
			c-0.315,0.474-0.701,0.765-1.158,0.875c-0.458,0.11-0.954,0.04-1.49-0.213c-0.678-0.662-1.367-1.154-2.068-1.478
			c-0.702-0.323-1.502-0.484-2.4-0.484c-0.614,0-1.154,0.087-1.619,0.26c-0.466,0.174-0.887,0.418-1.266,0.733
			c-0.378,0.315-0.732,0.693-1.063,1.135s-0.662,0.93-0.993,1.466v17.119c0,0.599-0.146,1.052-0.438,1.359
			c-0.292,0.308-0.776,0.461-1.454,0.461h-5.32c-1.229,0-1.845-0.606-1.845-1.82V44.028z"/>
		<path fill="#7BB344" d="M169.779,44.028c0-0.268,0.06-0.523,0.178-0.769c0.118-0.244,0.264-0.438,0.438-0.579
			c0.41-0.268,0.835-0.402,1.276-0.402h3.571c0.299,0,0.535,0.056,0.709,0.166c0.173,0.11,0.319,0.252,0.438,0.426
			c0.118,0.173,0.221,0.37,0.308,0.591c0.086,0.221,0.192,0.441,0.318,0.662c0.032,0.063,0.095,0.217,0.189,0.461
			s0.197,0.513,0.308,0.804c0.11,0.292,0.217,0.567,0.319,0.828c0.103,0.26,0.169,0.43,0.201,0.508
			c0.473-0.52,0.926-1.067,1.359-1.644c0.434-0.575,0.895-1.106,1.383-1.596c0.488-0.488,1.032-0.891,1.632-1.206
			c0.599-0.314,1.309-0.473,2.128-0.473c0.852,0,1.611,0.063,2.282,0.189c0.669,0.126,1.304,0.312,1.903,0.556
			c0.599,0.244,1.193,0.556,1.785,0.934c0.591,0.379,1.232,0.82,1.927,1.324c1.088,0.583,1.292,1.45,0.614,2.601l-2.151,3.665
			c-0.315,0.474-0.701,0.765-1.158,0.875c-0.458,0.11-0.954,0.04-1.49-0.213c-0.678-0.662-1.367-1.154-2.068-1.478
			c-0.702-0.323-1.502-0.484-2.4-0.484c-0.614,0-1.154,0.087-1.619,0.26c-0.466,0.174-0.887,0.418-1.266,0.733
			c-0.378,0.315-0.732,0.693-1.063,1.135s-0.662,0.93-0.993,1.466v17.119c0,0.599-0.146,1.052-0.438,1.359
			c-0.292,0.308-0.776,0.461-1.454,0.461h-5.32c-1.229,0-1.845-0.606-1.845-1.82V44.028z"/>
		<path fill="#7BB344" d="M191.414,57.316c0-1.45,0.186-2.845,0.556-4.185s0.891-2.581,1.561-3.725
			c0.67-1.143,1.474-2.183,2.412-3.121c0.938-0.938,1.982-1.737,3.133-2.399s2.392-1.175,3.724-1.537s2.724-0.544,4.174-0.544
			c2.144,0,4.157,0.398,6.041,1.194s3.523,1.892,4.918,3.286c1.396,1.396,2.499,3.035,3.311,4.918
			c0.812,1.885,1.218,3.922,1.218,6.112c0,1.451-0.186,2.842-0.556,4.174s-0.891,2.573-1.561,3.724
			c-0.67,1.151-1.474,2.195-2.412,3.133c-0.938,0.938-1.982,1.742-3.133,2.412s-2.384,1.187-3.7,1.549s-2.691,0.544-4.126,0.544
			c-1.45,0-2.842-0.182-4.174-0.544s-2.573-0.879-3.724-1.549s-2.195-1.474-3.133-2.412c-0.938-0.938-1.742-1.981-2.412-3.133
			c-0.67-1.15-1.19-2.392-1.561-3.724S191.414,58.768,191.414,57.316z M200.045,57.316c0,1.041,0.161,2.015,0.484,2.921
			s0.78,1.69,1.371,2.353c0.592,0.662,1.309,1.186,2.152,1.572c0.843,0.387,1.793,0.579,2.849,0.579
			c1.024,0,1.951-0.192,2.778-0.579c0.828-0.387,1.529-0.91,2.104-1.572s1.017-1.446,1.324-2.353s0.461-1.88,0.461-2.921
			c0-1.008-0.153-1.97-0.461-2.885c-0.308-0.914-0.749-1.718-1.324-2.411s-1.276-1.241-2.104-1.644
			c-0.827-0.402-1.754-0.603-2.778-0.603c-1.056,0-2.006,0.2-2.849,0.603c-0.844,0.402-1.561,0.95-2.152,1.644
			c-0.591,0.693-1.048,1.497-1.371,2.411C200.206,55.347,200.045,56.309,200.045,57.316z"/>
		<path fill="#7BB344" d="M226.622,37.597c0-0.488,0.161-0.854,0.484-1.099c0.323-0.244,0.784-0.477,1.384-0.698l5.367-1.868
			c0.078-0.016,0.153-0.024,0.225-0.024c0.07,0,0.138,0,0.201,0c0.583,0,0.973,0.17,1.17,0.508c0.197,0.339,0.296,0.785,0.296,1.336
			l-0.023,7.449h3.948c0.504,0,0.914,0.149,1.229,0.449c0.315,0.299,0.473,0.748,0.473,1.348v4.563c0,0.662-0.157,1.146-0.473,1.454
			s-0.726,0.461-1.229,0.461h-3.948l0.023,19.011c0,0.599-0.174,1.052-0.521,1.359s-0.827,0.461-1.442,0.461h-5.344
			c-1.214,0-1.82-0.606-1.82-1.82l-0.023-19.011h-1.727c-1.214,0-1.82-0.639-1.82-1.915v-4.563c0-1.198,0.606-1.797,1.82-1.797
			h1.727L226.622,37.597z"/>
	</g>
</g>
<g>
	<g>
		
			<linearGradient id="SVGID_1_" gradientUnits="userSpaceOnUse" x1="226.8418" y1="-125.2427" x2="226.8418" y2="-68.1142" gradientTransform="matrix(0.7071 0.7071 -0.7071 0.7071 -198.979 -40.3457)">
			<stop  offset="0" style="stop-color:#F89A1C"/>
			<stop  offset="1" style="stop-color:#DE6A26"/>
		</linearGradient>
		<path fill="url(#SVGID_1_)" d="M50.369,31.106c-8.223-8.224-21.555-8.224-29.775,0C12.37,39.327,5.222,67.699,9.5,71.975
			c4.276,4.275,32.646-2.872,40.869-11.095C58.59,52.658,58.59,39.327,50.369,31.106z M27.754,53.718
			c-4.257-4.259-4.257-11.191,0.003-15.451c4.259-4.26,11.19-4.26,15.448,0c4.262,4.26,4.261,11.192,0.002,15.451
			C38.947,57.978,32.016,57.978,27.754,53.718z"/>
	</g>
	<g>
		
			<linearGradient id="SVGID_2_" gradientUnits="userSpaceOnUse" x1="210.4619" y1="-144.9805" x2="225.2655" y2="-127.8249" gradientTransform="matrix(0.7071 0.7071 -0.7071 0.7071 -198.979 -40.3457)">
			<stop  offset="0" style="stop-color:#98C93E"/>
			<stop  offset="1" style="stop-color:#509944"/>
		</linearGradient>
		<path fill="url(#SVGID_2_)" d="M56.118,10.204c-0.304-2.285-1.958-4.133-4.263-4.082c-2.304,0.048-4.138,1.688-4.084,4.262
			c0.045,2.084,2.043,7.796,1.921,17.25c-0.021,1.596,1.038,0.684,1.358-0.028C51.16,27.366,56.927,16.322,56.118,10.204z"/>
		
			<linearGradient id="SVGID_3_" gradientUnits="userSpaceOnUse" x1="243.8535" y1="-146.5566" x2="230.4784" y2="-127.7392" gradientTransform="matrix(0.7071 0.7071 -0.7071 0.7071 -198.979 -40.3457)">
			<stop  offset="0" style="stop-color:#98C93E"/>
			<stop  offset="1" style="stop-color:#509944"/>
		</linearGradient>
		<path fill="url(#SVGID_3_)" d="M72.731,25.124c2.296,0.19,4.224,1.751,4.29,4.056c0.064,2.304-1.483,4.218-4.056,4.291
			c-2.084,0.057-8.598-1.212-18.035-0.623c-1.591,0.099-1.272-0.609-0.039-1.358C55.117,31.352,66.58,24.618,72.731,25.124z"/>
		
			<linearGradient id="SVGID_4_" gradientUnits="userSpaceOnUse" x1="227.5664" y1="-157.1357" x2="227.5664" y2="-128.3457" gradientTransform="matrix(0.7071 0.7071 -0.7071 0.7071 -198.979 -40.3457)">
			<stop  offset="0" style="stop-color:#98C93E"/>
			<stop  offset="1" style="stop-color:#509944"/>
		</linearGradient>
		<path fill="url(#SVGID_4_)" d="M64.948,9.442c1.844-2.104,5.85-2.232,8.082,0c2.23,2.231,2.644,6.095,0,8.08
			c-2.388,1.794-19.681,14.407-21.058,13.03C50.392,28.97,63.964,10.565,64.948,9.442z"/>
	</g>
</g>
</svg>
