<?xml version="1.0" encoding="utf-8"?>
<!-- Generator: Adobe Illustrator 15.0.2, SVG Export Plug-In . SVG Version: 6.00 Build 0)  -->
<!DOCTYPE svg PUBLIC "-//W3C//DTD SVG 1.1//EN" "http://www.w3.org/Graphics/SVG/1.1/DTD/svg11.dtd">
<svg version="1.1" id="Layer_1" xmlns="http://www.w3.org/2000/svg" xmlns:xlink="http://www.w3.org/1999/xlink" x="0px" y="0px"
	 width="300px" height="300px" viewBox="0 0 300 300" enable-background="new 0 0 300 300" xml:space="preserve">

<g>
	<g>

			<linearGradient id="SVGID_1_" gradientUnits="userSpaceOnUse" x1="524.4277" y1="335.457" x2="524.4277" y2="151.5483" gradientTransform="matrix(0.7071 0.7071 0.7071 -0.7071 -466.301 -30.2987)">
			<stop  offset="0" style="stop-color:#F89A1C"/>
			<stop  offset="1" style="stop-color:#DE6A26"/>
		</linearGradient>
		<path fill="url(#SVGID_1_)" d="M142.977,102.07c-26.469-26.469-69.383-26.469-95.852,0c-26.47,26.47-49.481,117.8-35.714,131.567
			c13.767,13.768,105.097-9.246,131.566-35.713C169.444,171.452,169.444,128.54,142.977,102.07z M70.175,174.861
			c-13.708-13.709-13.708-36.024,0.005-49.735c13.712-13.713,36.025-13.713,49.736,0c13.717,13.711,13.716,36.026,0.002,49.74
			C106.206,188.579,83.893,188.579,70.175,174.861z"/>
	</g>
	<g>

			<linearGradient id="SVGID_2_" gradientUnits="userSpaceOnUse" x1="471.6963" y1="398.999" x2="519.355" y2="343.7683" gradientTransform="matrix(0.7071 0.7071 0.7071 -0.7071 -466.301 -30.2987)">
			<stop  offset="0" style="stop-color:#98C93E"/>
			<stop  offset="1" style="stop-color:#509944"/>
		</linearGradient>
		<path fill="url(#SVGID_2_)" d="M161.482,34.79c-0.974-7.359-6.301-13.306-13.721-13.148c-7.419,0.158-13.324,5.436-13.147,13.721
			c0.144,6.714,6.573,25.098,6.182,55.534c-0.066,5.133,3.336,2.2,4.374-0.093C145.521,90.031,164.088,54.483,161.482,34.79z"/>

			<linearGradient id="SVGID_3_" gradientUnits="userSpaceOnUse" x1="579.1943" y1="404.0703" x2="536.1371" y2="343.4932" gradientTransform="matrix(0.7071 0.7071 0.7071 -0.7071 -466.301 -30.2987)">
			<stop  offset="0" style="stop-color:#98C93E"/>
			<stop  offset="1" style="stop-color:#509944"/>
		</linearGradient>
		<path fill="url(#SVGID_3_)" d="M214.963,82.816c7.396,0.61,13.602,5.637,13.809,13.058c0.208,7.417-4.772,13.575-13.055,13.806
			c-6.714,0.189-27.677-3.893-58.059-1.999c-5.122,0.321-4.094-1.962-0.122-4.373C158.261,102.868,195.163,81.186,214.963,82.816z"
			/>

			<linearGradient id="SVGID_4_" gradientUnits="userSpaceOnUse" x1="526.7607" y1="438.1191" x2="526.7607" y2="345.4443" gradientTransform="matrix(0.7071 0.7071 0.7071 -0.7071 -466.301 -30.2987)">
			<stop  offset="0" style="stop-color:#98C93E"/>
			<stop  offset="1" style="stop-color:#509944"/>
		</linearGradient>
		<path fill="url(#SVGID_4_)" d="M189.909,32.337c5.935-6.773,18.83-7.186,26.013,0c7.182,7.182,8.511,19.618,0,26.011
			c-7.684,5.771-63.35,46.377-67.786,41.941C143.047,95.2,186.743,35.948,189.909,32.337z"/>
	</g>
</g>
</svg>
