<svg xmlns="http://www.w3.org/2000/svg" width="500" height="300" viewBox="0 0 500 300"><g fill="#4E4F50"><path d="M217.608 220.793c.8 0 1.532.07 2.192.21.66.142 1.226.373 1.697.692.472.32.837.747 1.096 1.277.26.53.39 1.188.39 1.97 0 .843-.193 1.546-.578 2.108-.385.562-.955 1.023-1.71 1.383 1.038.297 1.812.816 2.323 1.56.51.74.766 1.636.766 2.683 0 .844-.165 1.574-.495 2.19-.33.618-.775 1.122-1.333 1.513s-1.194.68-1.91.866c-.714.188-1.45.28-2.203.28h-8.155v-16.733h7.918zm-.47 6.773c.66 0 1.2-.156 1.625-.47s.636-.82.636-1.522c0-.39-.07-.71-.213-.96s-.33-.446-.565-.587c-.236-.14-.507-.238-.813-.293-.307-.055-.626-.082-.955-.082h-3.465v3.914h3.747zm.21 7.102c.362 0 .708-.035 1.038-.105s.62-.188.872-.352c.25-.163.452-.386.6-.667.15-.28.225-.64.225-1.078 0-.86-.244-1.473-.73-1.84-.487-.367-1.13-.55-1.933-.55h-4.03v4.593h3.96zM230.5 234.62c.502.485 1.226.728 2.168.728.675 0 1.257-.168 1.744-.504s.786-.69.896-1.066h2.946c-.47 1.453-1.194 2.492-2.168 3.117s-2.153.938-3.535.938c-.957 0-1.822-.152-2.59-.457-.77-.305-1.423-.738-1.957-1.3-.535-.563-.947-1.235-1.237-2.017-.29-.782-.436-1.642-.436-2.58 0-.905.15-1.75.448-2.53.298-.78.723-1.457 1.272-2.027s1.206-1.02 1.968-1.348c.762-.328 1.606-.492 2.533-.492 1.038 0 1.94.2 2.71.598.77.4 1.403.935 1.898 1.606.495.672.852 1.438 1.072 2.297.22.86.298 1.758.235 2.695h-8.79c.047 1.077.322 1.86.825 2.343zm3.783-6.374c-.4-.438-1.01-.656-1.827-.656-.534 0-.978.09-1.332.27s-.636.402-.85.668c-.21.266-.36.547-.447.844s-.138.562-.153.797h5.444c-.156-.846-.435-1.486-.835-1.924zM241.294 229.137c.047-.78.243-1.43.59-1.945.344-.516.784-.93 1.318-1.242s1.135-.535 1.803-.668c.667-.133 1.34-.2 2.015-.2.613 0 1.233.044 1.862.13.628.086 1.202.254 1.72.504.52.25.943.598 1.273 1.043s.495 1.034.495 1.77v6.304c0 .547.03 1.07.094 1.57s.173.875.33 1.125H249.4c-.063-.19-.114-.38-.153-.575-.04-.195-.067-.395-.083-.598-.534.547-1.163.93-1.885 1.148-.724.22-1.462.328-2.216.328-.582 0-1.124-.07-1.626-.21s-.943-.36-1.32-.657-.67-.672-.884-1.125c-.212-.452-.318-.99-.318-1.616 0-.688.12-1.254.365-1.7.244-.444.56-.8.943-1.065s.825-.466 1.32-.6c.495-.132.994-.237 1.497-.315s.998-.14 1.485-.188c.487-.047.92-.117 1.296-.21s.676-.23.897-.41c.22-.18.322-.442.306-.786 0-.358-.06-.644-.177-.854-.118-.21-.275-.375-.47-.492-.198-.117-.425-.195-.685-.234s-.537-.06-.835-.06c-.66 0-1.178.142-1.556.423-.378.28-.598.75-.66 1.406h-3.346zm7.73 2.46c-.14.126-.318.224-.53.294-.212.07-.44.13-.683.177-.243.047-.498.086-.765.117-.268.03-.534.07-.8.117-.252.048-.5.11-.743.19-.244.077-.456.183-.637.315s-.326.3-.436.504-.166.46-.166.772c0 .297.055.547.165.75s.258.363.447.48c.19.117.41.2.66.246.25.047.51.07.778.07.66 0 1.17-.11 1.532-.328.36-.22.628-.48.8-.785s.28-.613.32-.926c.038-.313.058-.563.058-.75v-1.242zM261.773 227.59c-.533 0-.98.12-1.343.363s-.656.555-.884.938c-.23.384-.39.806-.482 1.267-.095.46-.143.918-.143 1.37 0 .44.05.884.144 1.337.094.453.246.863.46 1.23.21.367.497.668.86.902.36.234.8.352 1.318.352.802 0 1.418-.223 1.85-.668.433-.445.703-1.043.814-1.793h3.23c-.222 1.61-.85 2.836-1.887 3.68s-2.365 1.266-3.984 1.266c-.91 0-1.748-.152-2.51-.457s-1.41-.73-1.944-1.277-.95-1.2-1.25-1.958-.446-1.59-.446-2.496c0-.938.137-1.81.412-2.613.274-.805.68-1.5 1.214-2.086s1.187-1.043 1.956-1.37 1.65-.493 2.64-.493c.722 0 1.417.094 2.085.28s1.266.474 1.792.856.954.86 1.284 1.43.518 1.246.565 2.027h-3.277c-.22-1.392-1.045-2.087-2.475-2.087zM270.54 228.844c.3-.79.724-1.46 1.274-2.016.55-.555 1.21-.984 1.98-1.29s1.634-.456 2.592-.456 1.827.152 2.604.457 1.44.733 1.992 1.288c.55.555.973 1.227 1.27 2.016s.45 1.668.45 2.637-.15 1.845-.45 2.626-.722 1.45-1.27 2.004c-.55.555-1.215.98-1.992 1.277s-1.646.445-2.604.445-1.823-.148-2.593-.445-1.43-.723-1.98-1.277c-.55-.555-.974-1.223-1.272-2.004s-.446-1.656-.446-2.625.148-1.847.447-2.636zm3.042 4.054c.094.46.254.875.482 1.242.228.367.53.66.907.88.38.218.85.327 1.415.327s1.04-.11 1.427-.328c.385-.22.69-.513.918-.88.23-.367.39-.78.484-1.242.094-.46.14-.934.14-1.418s-.046-.96-.14-1.43c-.096-.47-.256-.883-.484-1.242-.228-.36-.533-.652-.918-.88-.386-.226-.86-.34-1.427-.34s-1.036.114-1.414.34c-.376.228-.68.52-.906.88-.23.36-.39.773-.482 1.242-.095.47-.143.945-.143 1.43s.047.958.142 1.418zM289.04 225.41v1.688h.072c.425-.703.974-1.215 1.65-1.535s1.366-.48 2.073-.48c.896 0 1.63.12 2.203.363.574.242 1.025.578 1.355 1.008s.562.953.695 1.57c.134.617.2 1.3.2 2.05v7.454h-3.347v-6.844c0-1-.155-1.746-.47-2.238s-.872-.738-1.674-.738c-.91 0-1.57.27-1.98.81s-.61 1.425-.61 2.66v6.35h-3.35V225.41h3.185zM313.93 220.793l3.936 11.508h.047l3.725-11.507h5.208v16.734h-3.464v-11.86h-.048l-4.124 11.86h-2.852l-4.125-11.742h-.047v11.742h-3.465v-16.734h5.21zM330.592 229.137c.047-.78.243-1.43.59-1.945.345-.516.785-.93 1.318-1.242.535-.312 1.136-.535 1.804-.668.667-.133 1.34-.2 2.015-.2.612 0 1.232.044 1.86.13.63.086 1.203.254 1.72.504.52.25.944.598 1.274 1.043s.494 1.034.494 1.77v6.304c0 .547.03 1.07.095 1.57s.173.875.33 1.125H338.7c-.063-.19-.115-.38-.154-.575-.04-.195-.067-.395-.083-.598-.533.547-1.162.93-1.885 1.148s-1.46.328-2.215.328c-.582 0-1.124-.07-1.627-.21s-.943-.36-1.32-.657-.67-.672-.883-1.125c-.213-.452-.318-.99-.318-1.616 0-.688.12-1.254.365-1.7.243-.444.558-.8.942-1.065s.825-.466 1.32-.6c.495-.132.993-.237 1.496-.315s.997-.14 1.485-.188c.486-.047.92-.117 1.296-.21s.674-.23.895-.41c.22-.18.322-.442.307-.786 0-.358-.06-.644-.178-.854-.117-.21-.274-.375-.47-.492-.198-.117-.425-.195-.685-.234s-.54-.06-.837-.06c-.66 0-1.18.142-1.557.423-.377.28-.597.75-.66 1.406h-3.344zm7.73 2.46c-.142.126-.318.224-.53.294-.212.07-.44.13-.684.177-.244.047-.5.086-.767.117s-.532.07-.8.117c-.252.048-.5.11-.742.19-.244.077-.456.183-.637.315s-.325.3-.435.504c-.11.202-.166.46-.166.772 0 .297.055.547.165.75.11.203.26.363.447.48.19.117.408.2.66.246.25.047.51.07.777.07.66 0 1.17-.11 1.53-.328.362-.22.63-.48.803-.785.172-.305.278-.613.318-.926.04-.313.06-.563.06-.75v-1.242zM348.432 225.41v1.688h.07c.426-.703.975-1.215 1.65-1.535s1.367-.48 2.074-.48c.896 0 1.63.12 2.203.363.573.242 1.024.578 1.354 1.008s.562.953.695 1.57c.133.617.2 1.3.2 2.05v7.454h-3.348v-6.844c0-1-.156-1.746-.47-2.238s-.873-.738-1.675-.738c-.91 0-1.57.27-1.98.81s-.61 1.425-.61 2.66v6.35h-3.35V225.41h3.185zM360.074 229.137c.047-.78.244-1.43.59-1.945s.785-.93 1.32-1.242 1.135-.535 1.803-.668c.667-.133 1.34-.2 2.015-.2.612 0 1.233.044 1.862.13.627.086 1.2.254 1.72.504s.942.598 1.272 1.043.495 1.034.495 1.77v6.304c0 .547.032 1.07.096 1.57.062.5.172.875.33 1.125h-3.395c-.06-.19-.112-.38-.15-.575-.04-.195-.068-.395-.084-.598-.534.547-1.163.93-1.886 1.148s-1.46.328-2.215.328c-.582 0-1.123-.07-1.627-.21-.502-.142-.942-.36-1.32-.657s-.67-.672-.883-1.125c-.212-.452-.318-.99-.318-1.616 0-.688.12-1.254.365-1.7s.56-.8.943-1.065.824-.466 1.32-.6.992-.237 1.496-.315c.503-.078.998-.14 1.485-.188.486-.047.92-.117 1.297-.21s.675-.23.895-.41c.22-.18.322-.442.307-.786 0-.358-.06-.644-.177-.854s-.274-.375-.472-.492c-.196-.117-.424-.195-.684-.234-.258-.04-.536-.06-.835-.06-.66 0-1.178.142-1.556.423-.378.28-.598.75-.66 1.406h-3.346zm7.73 2.46c-.14.126-.317.224-.53.294s-.44.13-.682.177c-.244.047-.5.086-.767.117-.268.03-.534.07-.802.117-.25.048-.498.11-.742.19s-.454.183-.636.315c-.18.133-.326.3-.436.504s-.165.46-.165.772c0 .297.056.547.165.75s.26.363.447.48c.19.117.41.2.66.246.252.047.51.07.778.07.66 0 1.17-.11 1.532-.328.36-.22.628-.48.8-.785s.28-.613.32-.926.058-.563.058-.75v-1.242zM386.246 238.418c-.133.625-.42 1.207-.86 1.746-.44.54-1.075.996-1.908 1.37s-1.948.563-3.347.563c-.597 0-1.205-.074-1.825-.223-.62-.148-1.188-.38-1.697-.69-.51-.313-.936-.716-1.273-1.208s-.53-1.082-.576-1.77h3.32c.158.625.464 1.06.92 1.3.456.243.98.364 1.58.364.942 0 1.63-.28 2.06-.844s.642-1.273.626-2.133V235.3h-.047c-.363.64-.878 1.112-1.546 1.417s-1.37.457-2.11.457c-.91 0-1.695-.16-2.355-.48-.66-.32-1.203-.758-1.627-1.312s-.734-1.203-.932-1.945c-.194-.742-.293-1.527-.293-2.355 0-.78.114-1.535.342-2.262s.56-1.367 1-1.922c.44-.555.986-.996 1.64-1.324s1.4-.492 2.25-.492c.802 0 1.504.148 2.108.445.605.297 1.11.797 1.52 1.5h.048v-1.617h3.182v11.344c0 .484-.068 1.04-.202 1.664zm-4.584-4.03c.36-.19.66-.44.896-.75.235-.313.412-.67.53-1.067.117-.397.177-.815.177-1.253 0-.5-.047-.973-.142-1.418s-.252-.84-.472-1.185c-.22-.344-.51-.617-.87-.82s-.818-.305-1.367-.305c-.473 0-.877.094-1.215.28s-.62.442-.848.763c-.23.32-.393.688-.495 1.102s-.153.848-.153 1.3c0 .44.043.872.13 1.302.086.43.235.816.448 1.16.21.344.49.625.836.844s.777.33 1.297.33c.472-.002.888-.096 1.25-.283zM393.705 234.62c.503.485 1.227.728 2.17.728.674 0 1.256-.168 1.742-.504.487-.336.786-.69.896-1.066h2.945c-.47 1.453-1.193 2.492-2.168 3.117s-2.152.938-3.535.938c-.96 0-1.822-.152-2.592-.457-.77-.305-1.423-.738-1.957-1.3s-.946-1.235-1.236-2.017c-.29-.782-.437-1.642-.437-2.58 0-.905.15-1.75.448-2.53.3-.78.724-1.457 1.272-2.027.55-.57 1.206-1.02 1.97-1.348.76-.328 1.604-.492 2.532-.492 1.037 0 1.94.2 2.71.598.77.4 1.403.935 1.897 1.606.496.672.854 1.438 1.073 2.297.22.86.3 1.758.236 2.695h-8.792c.05 1.077.325 1.86.827 2.343zm3.783-6.374c-.4-.438-1.01-.656-1.826-.656-.535 0-.98.09-1.332.27s-.637.402-.85.668-.36.547-.447.844c-.086.297-.137.562-.152.797h5.444c-.156-.846-.435-1.486-.836-1.924zM407.893 225.41v1.64h.048c.44-.624.97-1.108 1.592-1.452s1.332-.516 2.133-.516c.77 0 1.473.148 2.11.445s1.118.82 1.448 1.57c.36-.53.853-1 1.473-1.406.62-.405 1.355-.608 2.204-.608.644 0 1.24.078 1.79.234s1.022.406 1.415.75.7.793.92 1.348c.22.555.33 1.223.33 2.004v8.11h-3.347v-6.868c0-.406-.017-.79-.048-1.148-.032-.36-.118-.672-.26-.938-.14-.266-.35-.477-.624-.633s-.648-.233-1.12-.233c-.47 0-.853.09-1.143.27s-.52.414-.683.703c-.166.29-.275.617-.33.984-.056.367-.083.738-.083 1.113v6.75h-3.347v-6.797c0-.36-.008-.715-.023-1.066s-.082-.676-.2-.973-.315-.534-.59-.714c-.274-.18-.68-.27-1.214-.27-.156 0-.365.035-.624.105s-.512.204-.756.4c-.243.194-.45.476-.624.843s-.26.848-.26 1.44v7.032h-3.347V225.41h3.16zM430.566 234.62c.502.485 1.225.728 2.168.728.675 0 1.257-.168 1.744-.504.486-.336.785-.69.896-1.066h2.945c-.472 1.453-1.194 2.492-2.17 3.117s-2.15.938-3.534.938c-.958 0-1.822-.152-2.593-.457-.77-.305-1.422-.738-1.956-1.3s-.946-1.235-1.237-2.017-.436-1.642-.436-2.58c0-.905.15-1.75.447-2.53.3-.78.724-1.457 1.274-2.027.55-.57 1.205-1.02 1.968-1.348.762-.328 1.606-.492 2.533-.492 1.037 0 1.94.2 2.71.598.77.4 1.402.935 1.897 1.606s.853 1.438 1.072 2.297.3 1.758.236 2.695h-8.79c.048 1.077.322 1.86.826 2.343zm3.783-6.374c-.4-.438-1.01-.656-1.827-.656-.535 0-.98.09-1.332.27s-.636.402-.848.668-.36.547-.447.844c-.087.297-.138.562-.153.797h5.444c-.158-.846-.437-1.486-.837-1.924zM444.683 225.41v1.688h.07c.425-.703.975-1.215 1.65-1.535s1.367-.48 2.074-.48c.896 0 1.63.12 2.203.363s1.025.578 1.355 1.008.562.953.695 1.57c.133.617.2 1.3.2 2.05v7.454h-3.347v-6.844c0-1-.157-1.746-.472-2.238s-.87-.738-1.672-.738c-.91 0-1.57.27-1.98.81-.408.538-.612 1.425-.612 2.66v6.35H441.5V225.41h3.183zM463.16 225.41v2.227h-2.452v6c0 .562.095.938.283 1.125s.566.28 1.132.28c.188 0 .37-.007.542-.022s.338-.04.495-.07v2.578c-.283.047-.598.078-.943.094s-.684.023-1.014.023c-.52 0-1.01-.035-1.473-.105-.464-.07-.872-.207-1.226-.41s-.633-.492-.837-.867-.307-.867-.307-1.477v-7.148h-2.026v-2.227h2.026v-3.632h3.347v3.633h2.452z"/></g><g fill="#7BB344"><path d="M235.834 139.293c.503.296.873.68 1.11 1.154.236.474.192 1.036-.133 1.687l-7.5 10.653c-.326.503-.674.792-1.043.865-.37.074-.82-.05-1.354-.377-1.45-1.095-3.048-1.938-4.794-2.53s-3.596-.888-5.55-.888c-2.426 0-4.66.46-6.702 1.376-2.042.918-3.803 2.175-5.282 3.773-1.48 1.598-2.634 3.462-3.462 5.593-.83 2.13-1.243 4.408-1.243 6.835s.415 4.698 1.244 6.813c.828 2.116 1.982 3.966 3.462 5.55 1.48 1.582 3.24 2.833 5.282 3.75 2.042.917 4.276 1.376 6.703 1.376 1.954 0 3.818-.304 5.594-.91 1.776-.606 3.388-1.457 4.838-2.553.533-.324.977-.457 1.332-.398.355.06.71.326 1.065.8l7.59 10.92c.325.65.37 1.197.133 1.642-.237.443-.607.814-1.11 1.11-2.78 1.863-5.777 3.306-8.988 4.327-3.21 1.022-6.592 1.532-10.143 1.532-3.137 0-6.147-.4-9.033-1.198-2.886-.8-5.587-1.938-8.102-3.418-2.516-1.48-4.802-3.247-6.858-5.305-2.057-2.056-3.825-4.334-5.304-6.835-1.48-2.5-2.62-5.193-3.418-8.08-.8-2.884-1.198-5.895-1.198-9.03s.4-6.15 1.198-9.034c.8-2.885 1.938-5.593 3.418-8.122 1.48-2.53 3.247-4.83 5.304-6.903 2.057-2.07 4.343-3.84 6.858-5.304 2.515-1.464 5.215-2.603 8.1-3.417 2.887-.813 5.897-1.22 9.034-1.22 3.55 0 6.902.495 10.054 1.485 3.15.993 6.116 2.42 8.898 4.285zM300.286 197.13c0 .505-.09.985-.267 1.444s-.475.82-.89 1.087c-.324.327-.71.534-1.152.623-.444.09-.83.133-1.154.133h-8.745c-.623 0-1.126-.08-1.51-.244-.385-.162-.695-.392-.933-.688-.237-.295-.437-.658-.6-1.087-.163-.43-.333-.895-.51-1.398l-1.288-3.33c-.8.8-1.673 1.65-2.62 2.553-.947.902-1.99 1.738-3.13 2.508s-2.374 1.414-3.705 1.932c-1.332.518-2.753.776-4.26.776-2.694 0-5.276-.34-7.747-1.02-2.472-.682-4.78-1.65-6.926-2.908-2.145-1.258-4.09-2.767-5.836-4.528-1.747-1.76-3.248-3.72-4.505-5.88-1.257-2.16-2.226-4.49-2.907-6.992-.68-2.5-1.02-5.112-1.02-7.835 0-4.112.754-7.938 2.263-11.475 1.51-3.535 3.565-6.613 6.17-9.232 2.604-2.62 5.667-4.676 9.188-6.17s7.295-2.242 11.32-2.242c1.834 0 3.52.274 5.06.82 1.538.55 2.937 1.267 4.194 2.154s2.397 1.894 3.418 3.02c1.02 1.124 1.932 2.263 2.73 3.417l1.73-5.37c.296-.74.54-1.34.732-1.8s.4-.798.622-1.02c.222-.222.495-.37.82-.443.326-.074.784-.11 1.377-.11h6.614c.325 0 .71.044 1.155.132.443.09.828.297 1.153.622.414.326.71.695.888 1.11.178.414.267.887.267 1.42v50.023zm-43.724-24.857c0 1.953.304 3.78.91 5.482.606 1.702 1.473 3.174 2.598 4.416 1.124 1.244 2.478 2.23 4.06 2.953 1.585.726 3.337 1.088 5.262 1.088 1.98 0 3.824-.36 5.526-1.087 1.7-.725 3.18-1.71 4.44-2.952 1.256-1.24 2.24-2.713 2.95-4.415.71-1.7 1.065-3.53 1.065-5.482 0-1.894-.354-3.698-1.065-5.415-.71-1.716-1.694-3.226-2.95-4.528-1.26-1.302-2.74-2.33-4.44-3.085-1.702-.754-3.545-1.132-5.526-1.132-1.925 0-3.677.378-5.26 1.132-1.584.755-2.938 1.783-4.062 3.085-1.125 1.303-1.99 2.812-2.598 4.528-.606 1.717-.91 3.522-.91 5.415zM306.944 147.327c0-.503.11-.983.333-1.442.222-.46.495-.82.82-1.088.77-.503 1.568-.755 2.398-.755h6.702c.562 0 1.005.104 1.33.312s.6.474.823.8c.22.325.414.694.576 1.108.162.415.362.83.6 1.243.06.118.178.407.355.865.18.46.37.962.577 1.51s.406 1.064.6 1.553l.377.955c.89-.977 1.738-2.005 2.553-3.085.813-1.08 1.68-2.08 2.597-2.996s1.938-1.672 3.063-2.265c1.123-.59 2.455-.888 3.994-.888 1.6 0 3.026.12 4.284.355 1.258.236 2.45.584 3.574 1.042 1.124.46 2.24 1.043 3.352 1.754 1.11.71 2.314 1.54 3.617 2.485 2.042 1.096 2.426 2.724 1.154 4.884l-4.038 6.88c-.593.888-1.318 1.436-2.176 1.643-.858.207-1.79.074-2.797-.4-1.272-1.242-2.567-2.166-3.884-2.773-1.318-.606-2.82-.91-4.506-.91-1.154 0-2.168.163-3.04.488-.874.326-1.665.785-2.376 1.376-.71.593-1.375 1.303-1.997 2.13-.622.83-1.243 1.748-1.864 2.753V197c0 1.124-.273 1.975-.82 2.552s-1.46.865-2.73.865h-9.988c-2.308 0-3.462-1.14-3.462-3.418v-49.673zM354.04 147.327c0-.503.11-.983.333-1.442.22-.46.494-.82.82-1.088.77-.503 1.568-.755 2.397-.755h6.702c.562 0 1.006.104 1.332.312.325.207.6.474.82.8.223.325.415.694.578 1.108.162.415.36.83.6 1.243.06.118.177.407.354.865.178.46.37.962.577 1.51s.406 1.064.6 1.553c.19.488.317.807.377.955.888-.977 1.738-2.005 2.553-3.085.812-1.08 1.68-2.08 2.596-2.996.917-.917 1.937-1.672 3.062-2.265 1.124-.59 2.456-.888 3.995-.888 1.598 0 3.025.12 4.283.355 1.258.236 2.448.584 3.573 1.042 1.124.46 2.24 1.043 3.352 1.754 1.11.71 2.315 1.54 3.618 2.485 2.04 1.096 2.426 2.724 1.153 4.884l-4.04 6.88c-.592.888-1.316 1.436-2.174 1.643-.86.207-1.79.074-2.797-.4-1.272-1.242-2.567-2.166-3.884-2.773-1.316-.606-2.818-.91-4.504-.91-1.154 0-2.17.163-3.04.488-.874.326-1.666.785-2.376 1.376-.71.593-1.376 1.303-1.998 2.13-.62.83-1.242 1.748-1.863 2.753V197c0 1.124-.275 1.975-.823 2.552-.547.577-1.457.865-2.73.865h-9.986c-2.308 0-3.462-1.14-3.462-3.418v-49.673zM395.1 172.273c0-2.722.346-5.34 1.042-7.856.694-2.515 1.67-4.846 2.93-6.99 1.257-2.147 2.767-4.1 4.527-5.86s3.72-3.263 5.88-4.506c2.16-1.24 4.49-2.203 6.992-2.884 2.5-.68 5.11-1.02 7.835-1.02 4.023 0 7.805.747 11.34 2.24 3.537 1.495 6.615 3.552 9.232 6.17 2.618 2.62 4.69 5.698 6.214 9.233 1.523 3.536 2.287 7.36 2.287 11.474 0 2.723-.35 5.334-1.042 7.835-.697 2.5-1.674 4.83-2.93 6.99-1.26 2.16-2.768 4.12-4.53 5.88-1.76 1.763-3.72 3.272-5.88 4.53s-4.477 2.226-6.947 2.906-5.052 1.02-7.743 1.02c-2.724 0-5.335-.34-7.835-1.02-2.5-.68-4.83-1.65-6.99-2.907s-4.122-2.768-5.883-4.53c-1.762-1.76-3.272-3.72-4.528-5.88-1.26-2.16-2.235-4.49-2.93-6.99-.697-2.503-1.043-5.114-1.043-7.837zm16.2 0c0 1.953.304 3.78.91 5.482.606 1.702 1.466 3.174 2.575 4.416 1.11 1.244 2.455 2.23 4.04 2.953 1.58.726 3.364 1.088 5.348 1.088 1.923 0 3.662-.36 5.216-1.087 1.552-.725 2.868-1.71 3.948-2.952 1.08-1.24 1.91-2.713 2.486-4.415.578-1.7.865-3.53.865-5.482 0-1.894-.288-3.698-.866-5.415-.576-1.716-1.406-3.226-2.486-4.528-1.08-1.302-2.396-2.33-3.95-3.085-1.553-.754-3.292-1.132-5.215-1.132-1.983 0-3.767.378-5.35 1.132-1.583.755-2.93 1.783-4.038 3.085-1.11 1.303-1.97 2.812-2.574 4.528-.606 1.717-.91 3.522-.91 5.415zM461.637 135.253c0-.916.303-1.604.91-2.063.605-.46 1.47-.895 2.596-1.31l10.076-3.507c.147-.03.288-.044.42-.044h.38c1.094 0 1.826.317 2.197.953.37.637.555 1.473.555 2.508l-.045 13.983h7.412c.946 0 1.716.28 2.308.844s.89 1.405.89 2.53v8.566c0 1.243-.298 2.153-.89 2.73s-1.36.865-2.31.865h-7.41l.044 35.688c0 1.125-.326 1.976-.977 2.553-.652.576-1.555.864-2.71.864h-10.03c-2.28 0-3.418-1.14-3.418-3.418l-.045-35.688h-3.24c-2.28 0-3.418-1.198-3.418-3.596v-8.566c0-2.25 1.14-3.374 3.418-3.374h3.24l.045-10.52z"/></g><g><linearGradient id="a" gradientUnits="userSpaceOnUse" x1="524.428" y1="335.457" x2="524.428" y2="151.548" gradientTransform="rotate(45 -196.58 -578.03)"><stop offset="0" stop-color="#F89A1C"/><stop offset="1" stop-color="#DE6A26"/></linearGradient><path fill="url(#a)" d="M142.977 102.07c-26.47-26.47-69.383-26.47-95.852 0-26.47 26.47-49.48 117.8-35.714 131.567 13.768 13.768 105.098-9.246 131.567-35.713 26.467-26.472 26.467-69.384 0-95.854zm-72.802 72.79c-13.708-13.708-13.708-36.023.005-49.734 13.712-13.713 36.025-13.713 49.736 0 13.717 13.71 13.716 36.026.002 49.74-13.712 13.713-36.025 13.713-49.743-.005z"/><g><linearGradient id="b" gradientUnits="userSpaceOnUse" x1="471.696" y1="398.999" x2="519.355" y2="343.768" gradientTransform="rotate(45 -196.58 -578.03)"><stop offset="0" stop-color="#98C93E"/><stop offset="1" stop-color="#509944"/></linearGradient><path fill="url(#b)" d="M161.482 34.79c-.974-7.36-6.3-13.306-13.72-13.148-7.42.158-13.325 5.436-13.148 13.72.144 6.715 6.573 25.1 6.182 55.535-.066 5.133 3.336 2.2 4.374-.093.35-.773 18.918-36.32 16.312-56.014z"/><linearGradient id="c" gradientUnits="userSpaceOnUse" x1="579.194" y1="404.07" x2="536.137" y2="343.493" gradientTransform="rotate(45 -196.58 -578.03)"><stop offset="0" stop-color="#98C93E"/><stop offset="1" stop-color="#509944"/></linearGradient><path fill="url(#c)" d="M214.963 82.816c7.396.61 13.602 5.637 13.81 13.058.207 7.417-4.773 13.575-13.056 13.806-6.714.19-27.677-3.893-58.06-2-5.12.322-4.093-1.96-.12-4.372.724-.44 37.626-22.122 57.426-20.492z"/><linearGradient id="d" gradientUnits="userSpaceOnUse" x1="526.761" y1="438.119" x2="526.761" y2="345.444" gradientTransform="rotate(45 -196.58 -578.03)"><stop offset="0" stop-color="#98C93E"/><stop offset="1" stop-color="#509944"/></linearGradient><path fill="url(#d)" d="M189.91 32.337c5.934-6.773 18.83-7.186 26.012 0 7.182 7.182 8.51 19.618 0 26.01-7.684 5.772-63.35 46.378-67.786 41.942-5.09-5.09 38.607-64.342 41.773-67.953z"/></g></g></svg>