<svg xmlns="http://www.w3.org/2000/svg" width="250" height="75" viewBox="0 0 250 75"><g fill="#7BB344"><path d="M107.524 39.75c.268.156.464.36.59.613.127.252.104.552-.07.898l-3.996 5.676c-.173.27-.36.422-.556.46-.197.04-.438-.026-.72-.2-.773-.583-1.625-1.032-2.555-1.348-.93-.314-1.915-.473-2.956-.473-1.29 0-2.48.245-3.57.733-1.086.488-2.024 1.158-2.812 2.01-.79.85-1.403 1.844-1.845 2.98-.44 1.134-.662 2.348-.662 3.64 0 1.293.22 2.503.663 3.63s1.056 2.112 1.845 2.955c.788.844 1.726 1.51 2.813 1.998 1.09.49 2.28.734 3.57.734 1.042 0 2.035-.16 2.98-.484s1.805-.776 2.577-1.36c.284-.173.52-.244.71-.213.188.032.377.174.566.426l4.043 5.816c.173.347.197.638.07.874-.125.236-.322.434-.59.592-1.482.993-3.078 1.76-4.788 2.305s-3.51.817-5.403.817c-1.67 0-3.275-.213-4.812-.64-1.537-.425-2.976-1.03-4.315-1.82s-2.558-1.73-3.653-2.825c-1.096-1.096-2.038-2.31-2.826-3.642-.79-1.33-1.396-2.766-1.822-4.303-.425-1.537-.638-3.14-.638-4.812s.213-3.275.638-4.812c.426-1.536 1.032-2.98 1.82-4.326.79-1.35 1.73-2.573 2.827-3.677 1.095-1.104 2.313-2.046 3.653-2.826s2.778-1.387 4.315-1.82c1.537-.434 3.14-.65 4.812-.65 1.892 0 3.677.264 5.355.792 1.682.53 3.262 1.29 4.744 2.283zM141.62 70.558c0 .27-.048.524-.142.77-.096.244-.254.437-.473.578-.174.174-.38.284-.615.33-.236.05-.44.072-.615.072h-4.658c-.33 0-.6-.043-.805-.13s-.37-.21-.496-.366c-.125-.158-.232-.35-.318-.58-.088-.228-.178-.477-.27-.744l-.687-1.773c-.425.426-.89.88-1.395 1.36-.504.48-1.06.925-1.666 1.335-.608.41-1.267.753-1.976 1.028s-1.466.414-2.27.414c-1.435 0-2.81-.182-4.126-.544-1.316-.362-2.546-.88-3.69-1.55s-2.178-1.473-3.108-2.41c-.93-.94-1.73-1.982-2.4-3.134-.67-1.15-1.186-2.392-1.548-3.724-.363-1.332-.544-2.723-.544-4.174 0-2.19.402-4.228 1.206-6.112.804-1.883 1.9-3.522 3.287-4.918 1.388-1.395 3.02-2.49 4.895-3.286s3.886-1.194 6.03-1.194c.977 0 1.875.146 2.696.438.82.292 1.565.674 2.235 1.146.67.474 1.276 1.01 1.82 1.608.543.6 1.03 1.206 1.455 1.82l.922-2.86c.156-.395.287-.714.39-.958.103-.244.212-.426.33-.544.118-.118.265-.197.44-.236s.417-.06.73-.06h3.524c.174 0 .38.023.615.07.237.048.442.158.616.332.22.174.377.37.473.59.093.222.14.474.14.758v26.648zm-23.29-13.242c0 1.04.16 2.015.484 2.92s.784 1.69 1.383 2.354 1.32 1.186 2.164 1.572 1.778.58 2.803.58c1.056 0 2.038-.193 2.944-.58s1.694-.91 2.365-1.572c.67-.662 1.193-1.446 1.57-2.353.38-.906.57-1.88.57-2.92 0-1.01-.19-1.97-.57-2.886-.377-.913-.9-1.717-1.57-2.41-.67-.693-1.46-1.24-2.365-1.644s-1.888-.603-2.944-.603c-1.024 0-1.958.2-2.802.603s-1.563.95-2.163 1.644-1.06 1.497-1.383 2.41c-.323.917-.484 1.88-.484 2.886zM144.93 44.028c0-.268.06-.523.178-.77.118-.243.264-.437.438-.578.41-.268.835-.402 1.276-.402h3.57c.3 0 .536.056.71.166.173.11.32.252.438.426.118.173.22.37.308.59.086.222.192.442.318.663.032.063.095.217.19.46s.196.514.307.805c.11.292.217.567.32.828.102.26.168.43.2.508.473-.52.926-1.067 1.36-1.644.433-.575.894-1.106 1.382-1.596.488-.488 1.032-.89 1.632-1.206.6-.314 1.31-.473 2.128-.473.852 0 1.61.063 2.282.19.67.125 1.304.31 1.903.555.6.244 1.193.556 1.785.934.59.38 1.232.82 1.927 1.324 1.088.583 1.292 1.45.614 2.6l-2.15 3.666c-.316.474-.702.765-1.16.875-.457.11-.953.04-1.49-.214-.677-.662-1.366-1.154-2.067-1.478-.703-.323-1.503-.484-2.4-.484-.615 0-1.155.087-1.62.26-.466.174-.887.418-1.266.733-.378.315-.732.693-1.063 1.135s-.66.93-.992 1.466v17.12c0 .598-.146 1.05-.438 1.358-.292.308-.776.46-1.454.46h-5.32c-1.23 0-1.845-.605-1.845-1.82V44.03zM169.78 44.028c0-.268.06-.523.177-.77.118-.243.264-.437.438-.578.41-.268.835-.402 1.276-.402h3.572c.3 0 .535.056.71.166.172.11.318.252.437.426.117.173.22.37.307.59.086.222.192.442.318.663.032.063.095.217.19.46s.196.514.307.805c.11.292.217.567.32.828.102.26.168.43.2.508.473-.52.926-1.067 1.36-1.644.433-.575.894-1.106 1.382-1.596.488-.488 1.032-.89 1.632-1.206.6-.314 1.31-.473 2.128-.473.852 0 1.61.063 2.282.19.67.125 1.304.31 1.903.555.598.244 1.192.556 1.784.934.59.38 1.232.82 1.927 1.324 1.09.583 1.293 1.45.615 2.6l-2.15 3.666c-.316.474-.702.765-1.16.875-.457.11-.953.04-1.49-.214-.677-.662-1.366-1.154-2.067-1.478-.702-.323-1.502-.484-2.4-.484-.614 0-1.154.087-1.62.26-.465.174-.886.418-1.265.733-.378.315-.732.693-1.063 1.135s-.662.93-.993 1.466v17.12c0 .598-.146 1.05-.438 1.358-.293.308-.777.46-1.455.46h-5.32c-1.23 0-1.845-.605-1.845-1.82V44.03zM191.414 57.316c0-1.45.186-2.845.556-4.185s.89-2.58 1.56-3.724c.67-1.143 1.475-2.183 2.413-3.12.938-.94 1.982-1.738 3.133-2.4s2.392-1.175 3.724-1.537 2.724-.545 4.174-.545c2.144 0 4.157.398 6.04 1.194s3.524 1.89 4.92 3.285c1.395 1.396 2.498 3.035 3.31 4.918.812 1.885 1.218 3.922 1.218 6.112 0 1.45-.186 2.842-.556 4.174s-.89 2.572-1.56 3.723c-.67 1.15-1.475 2.195-2.413 3.133-.938.938-1.982 1.742-3.133 2.412s-2.384 1.187-3.7 1.55-2.69.543-4.126.543c-1.45 0-2.842-.18-4.174-.543s-2.573-.88-3.724-1.55-2.195-1.473-3.133-2.41c-.938-.94-1.742-1.982-2.412-3.134-.67-1.15-1.19-2.392-1.56-3.724s-.556-2.722-.556-4.174zm8.63 0c0 1.04.162 2.015.485 2.92s.78 1.69 1.37 2.354c.592.662 1.31 1.186 2.152 1.572.843.387 1.793.58 2.85.58 1.023 0 1.95-.193 2.777-.58.827-.387 1.528-.91 2.103-1.572s1.017-1.446 1.324-2.353.46-1.88.46-2.92c0-1.01-.152-1.97-.46-2.886-.308-.913-.75-1.717-1.324-2.41s-1.276-1.24-2.104-1.644c-.828-.402-1.755-.603-2.78-.603-1.055 0-2.005.2-2.848.603-.844.402-1.56.95-2.152 1.644-.59.693-1.048 1.497-1.37 2.41-.324.917-.485 1.88-.485 2.886zM226.622 37.597c0-.488.16-.854.484-1.1.323-.243.784-.476 1.384-.697l5.367-1.868c.078-.016.153-.024.225-.024h.2c.584 0 .974.17 1.17.508.198.34.297.785.297 1.336l-.024 7.45h3.948c.504 0 .914.148 1.23.448.314.3.472.748.472 1.348v4.563c0 .663-.157 1.147-.473 1.455s-.726.46-1.23.46h-3.947l.023 19.012c0 .6-.175 1.052-.522 1.36s-.827.46-1.442.46h-5.344c-1.214 0-1.82-.606-1.82-1.82l-.023-19.01h-1.728c-1.214 0-1.82-.64-1.82-1.916V45c0-1.198.606-1.797 1.82-1.797h1.727l.022-5.603z"/></g><linearGradient id="a" gradientUnits="userSpaceOnUse" x1="226.842" y1="-125.243" x2="226.842" y2="-68.114" gradientTransform="rotate(45 -50.79 -260.362)"><stop offset="0" stop-color="#F89A1C"/><stop offset="1" stop-color="#DE6A26"/></linearGradient><path fill="url(#a)" d="M50.37 31.106c-8.224-8.224-21.556-8.224-29.776 0C12.37 39.326 5.222 67.7 9.5 71.976c4.276 4.274 32.646-2.873 40.87-11.096 8.22-8.222 8.22-21.553 0-29.774zM27.753 53.718c-4.257-4.26-4.257-11.19.003-15.45s11.19-4.26 15.448 0c4.262 4.26 4.26 11.19.002 15.45-4.26 4.26-11.19 4.26-15.453 0z"/><g><linearGradient id="b" gradientUnits="userSpaceOnUse" x1="210.462" y1="-144.981" x2="225.266" y2="-127.825" gradientTransform="rotate(45 -50.79 -260.362)"><stop offset="0" stop-color="#98C93E"/><stop offset="1" stop-color="#509944"/></linearGradient><path fill="url(#b)" d="M56.118 10.204c-.304-2.285-1.958-4.133-4.263-4.082-2.304.048-4.138 1.688-4.084 4.262.046 2.084 2.044 7.796 1.922 17.25-.02 1.596 1.038.684 1.358-.028.11-.24 5.877-11.284 5.068-17.402z"/><linearGradient id="c" gradientUnits="userSpaceOnUse" x1="243.853" y1="-146.557" x2="230.478" y2="-127.739" gradientTransform="rotate(45 -50.79 -260.362)"><stop offset="0" stop-color="#98C93E"/><stop offset="1" stop-color="#509944"/></linearGradient><path fill="url(#c)" d="M72.73 25.124c2.297.19 4.225 1.75 4.29 4.056.065 2.304-1.482 4.218-4.055 4.29-2.084.058-8.598-1.21-18.035-.622-1.59.1-1.272-.61-.04-1.358.227-.138 11.69-6.872 17.84-6.366z"/><linearGradient id="d" gradientUnits="userSpaceOnUse" x1="227.566" y1="-157.136" x2="227.566" y2="-128.346" gradientTransform="rotate(45 -50.79 -260.362)"><stop offset="0" stop-color="#98C93E"/><stop offset="1" stop-color="#509944"/></linearGradient><path fill="url(#d)" d="M64.948 9.442c1.844-2.104 5.85-2.232 8.082 0 2.23 2.23 2.644 6.095 0 8.08-2.388 1.794-19.68 14.407-21.058 13.03-1.58-1.582 11.992-19.987 12.976-21.11z"/></g></svg>